<svg xmlns="http://www.w3.org/2000/svg" xmlns:xlink="http://www.w3.org/1999/xlink" viewBox="0 0 338.05 500"><defs><style>.cls-1{fill:#80dde9;}.cls-2{fill:url(#radial-gradient);}.cls-3{fill:url(#radial-gradient-2);}.cls-4{fill:#729d00;}.cls-5{fill:#4a2400;}.cls-6{fill:#fac440;}.cls-7{fill:#fac761;}.cls-8{fill:#cd3700;}.cls-9{fill:#35404d;}.cls-10{fill:#93cbd8;}.cls-11{fill:#7eb033;}.cls-12{fill:#616801;}.cls-13{fill:#a1b400;}.cls-14{fill:#b1d132;}.cls-15{fill:#b3d246;}.cls-16{fill:#56770e;}.cls-17{fill:gray;opacity:0.7;}.cls-17,.cls-25{isolation:isolate;}.cls-18{fill:#f2a26d;}.cls-19{fill:#fcd097;}.cls-20{fill:#fff;}.cls-21{fill:#c63817;}.cls-22{fill:#cd4c1d;}.cls-23{fill:#636063;}.cls-24{fill:#0f0f0f;}.cls-25{fill:#a0d5ea;opacity:0.55;}.cls-26{fill:#626273;}.cls-27{fill:#ffc891;}.cls-28{fill:#fcecd6;}</style><radialGradient id="radial-gradient" cx="52.73" cy="3.02" r="162.25" gradientUnits="userSpaceOnUse"><stop offset="0" stop-color="#00e1f4"/><stop offset="1" stop-color="#008fa4"/></radialGradient><radialGradient id="radial-gradient-2" cx="306.01" cy="533.96" r="290.98" gradientTransform="translate(0 -89.69) scale(1 1.18)" xlink:href="#radial-gradient"/></defs><title>Asset 8</title><g id="Layer_2" data-name="Layer 2"><g id="BACKGROUND_2" data-name="BACKGROUND 2"><rect class="cls-1" width="338.05" height="500"/><polygon class="cls-2" points="116.71 0 54.37 0 54.37 189.95 123.41 189.95 123.41 0 116.71 0"/><rect class="cls-3" x="153.23" y="291.64" width="63.4" height="208.36"/><g id="Layer_2-2" data-name="Layer 2-2"><g id="search"><path class="cls-4" d="M89.52,227.55c7.37-14,1.65-26.62-12.86-30.35-4-14.35-16.65-19.91-30.46-12.31-14-7.39-26.62-1.65-30.36,12.86-14.47,4-20,16.6-12.44,30.54-7.38,14-1.65,26.6,12.83,30.35,4,14.42,16.67,20,30.58,12.38,14,7.36,26.59,1.65,30.33-12.88C91.56,254.18,97.13,241.49,89.52,227.55Z"/><polygon class="cls-5" points="39.9 298.74 53.1 298.74 48.13 235.37 57.27 223.74 57.17 223.66 47.9 232.52 46.13 210.06 45.43 210.07 42.51 256.84 29.82 241.18 29.63 241.3 42.17 262.2 39.9 298.74"/><rect class="cls-6" x="135.16" y="159.3" width="18.15" height="29.47"/><polygon class="cls-7" points="162.56 291.64 48.26 291.64 48.26 201.25 105.24 153.01 162.56 201.25 162.56 291.64"/><polygon class="cls-8" points="105.41 158.03 169.3 218.24 183.35 218.24 105.41 141.74 27.49 218.24 41.52 218.24 105.41 158.03"/><rect class="cls-9" x="131.98" y="150.85" width="24.52" height="8.66"/><rect class="cls-9" x="64.17" y="240.83" width="29.06" height="50.81"/><rect class="cls-8" x="66.47" y="244.07" width="24.49" height="22.81"/><rect class="cls-10" x="67.65" y="245.17" width="22.1" height="20.58"/><rect class="cls-9" x="105.41" y="227.12" width="47.92" height="42.67"/><rect class="cls-10" x="106.61" y="228.34" width="45.5" height="40.26"/><rect class="cls-9" x="88.38" y="180.52" width="34.06" height="30.33"/><rect class="cls-10" x="89.58" y="181.72" width="31.63" height="27.9"/><rect class="cls-9" x="103.63" y="267.91" width="51.47" height="3.61"/><polygon class="cls-7" points="148.73 260.92 139.27 260.92 140.54 266.84 147.47 266.84 148.73 260.92"/><path class="cls-11" d="M143.68,257a4,4,0,0,1,4.49-3.3,4.77,4.77,0,0,1-3.93,5C143.17,259,143.68,257,143.68,257Z"/><path class="cls-12" d="M141.43,259.27a3.71,3.71,0,0,1-1.94-4.82,4.46,4.46,0,0,1,3.66,4.7C143.13,260.17,141.43,259.27,141.43,259.27Z"/><path class="cls-13" d="M142.37,259.81a4.44,4.44,0,0,1,1.51-6.06,5.38,5.38,0,0,1,.23,7.17C143.36,261.89,142.37,259.81,142.37,259.81Z"/><path class="cls-14" d="M147,261.76a6.27,6.27,0,0,0,2.6-5.71,5.15,5.15,0,0,0-5.66,4.5,5.76,5.76,0,0,0-.09,1.24Z"/><path class="cls-15" d="M140.82,261.76h3.47a5.33,5.33,0,0,0-5.37-4.51A4.22,4.22,0,0,0,140.82,261.76Z"/><polygon class="cls-8" points="148.73 260.92 139.27 260.92 139.6 262.44 148.4 262.44 148.73 260.92"/><polygon class="cls-8" points="147.47 266.84 148.31 262.81 139.68 262.81 140.54 266.84 147.47 266.84"/><path class="cls-8" d="M148.74,267.27a.63.63,0,0,1-.62.63h-8.25a.63.63,0,0,1-.63-.63h0a.63.63,0,0,1,.63-.63h8.25A.63.63,0,0,1,148.74,267.27Z"/><path class="cls-12" d="M92.41,202.93a.9.9,0,0,1,.1,1.24,1.05,1.05,0,0,1-1.31-1.52A.91.91,0,0,1,92.41,202.93Z"/><path class="cls-12" d="M91.1,203.79a.47.47,0,0,1-.46-.46.45.45,0,0,1,.46-.43.44.44,0,0,1,.43.46A.45.45,0,0,1,91.1,203.79Z"/><path class="cls-12" d="M91.18,202.4h0l.27.53h0Z"/><path class="cls-12" d="M91.88,202.22h0v.59h0Z"/><path class="cls-12" d="M90.54,202.93h0l.56.16h0l-.58-.16Z"/><path class="cls-12" d="M90.44,203.37Z"/><path class="cls-12" d="M90.66,203.8h0l.39-.44h0Z"/><path class="cls-12" d="M91.2,204.05h0l.33-.51h0l-.33.49Z"/><path class="cls-12" d="M91.53,204.32h0l.38-.45h0Z"/><path class="cls-12" d="M96.53,203.11a1.35,1.35,0,0,1-1.8.5,1.66,1.66,0,0,1,.68-2.24,1.69,1.69,0,0,1,1.19-.14A1.35,1.35,0,0,1,96.53,203.11Z"/><path class="cls-12" d="M95.44,201.72a.47.47,0,0,1-.46-.47.45.45,0,0,1,.41-.51h0a.5.5,0,0,1,0,1Z"/><path class="cls-12" d="M95.43,200.42h0v.6h0Z"/><path class="cls-12" d="M96.42,200.85h0l-.32.5h0l.33-.5Z"/><path class="cls-12" d="M97,201.35h0l-.53.28h0l.53-.27Z"/><path class="cls-12" d="M97.16,202.14Z"/><path class="cls-12" d="M97,202.8h0l-.54-.27h0l.52.25Z"/><path class="cls-12" d="M96.38,203.46h0l-.43-.4h0Z"/><path class="cls-12" d="M94.73,200.88h0l.5.35h0l-.48-.35Z"/><path class="cls-12" d="M96,204.79c0,1.42-.85,2.58-1.89,2.58s-1.9-1.16-1.9-2.58.84-2.59,1.9-2.59S96,203.36,96,204.79Z"/><path class="cls-12" d="M95.71,204.32h0l.57-.14h0Z"/><path class="cls-12" d="M94.06,201.89h0v.59h0Z"/><path class="cls-12" d="M93.23,202.15h0l.23.55h0l-.25-.55Z"/><path class="cls-12" d="M92.7,202.52h0l.38.46h0Z"/><path class="cls-12" d="M95.71,204.93Z"/><path class="cls-12" d="M95.71,205.5Z"/><path class="cls-12" d="M92.49,205.72h0l-.58.11h0Z"/><path class="cls-12" d="M92.41,205.12Z"/><path class="cls-12" d="M92.54,204.55Z"/><polygon class="cls-9" points="91.75 206.3 96.45 206.3 95.74 209.61 92.44 209.61 91.75 206.3"/><rect class="cls-9" x="128.71" y="228.34" width="1.32" height="40.26"/><rect class="cls-9" x="105.41" y="243.33" width="24.62" height="1.32"/><rect class="cls-9" x="88.97" y="190.21" width="32.87" height="1.29"/><rect class="cls-8" x="44.48" y="291.64" width="121.83" height="7.08"/><rect class="cls-7" x="88.38" y="271.53" width="2.57" height="4.49"/><path class="cls-16" d="M192.16,298.74c2.74-7.36-.73-13.63-8.45-15.55-2.39-8.25-9.75-11.42-17.72-6.94-8.15-4.15-15.38-.76-17.48,7.6-7.29,2.12-10.58,8.06-8.25,14.86Z"/></g><path class="cls-17" d="M241.76,304.88l-2.49,2.18-7.61-8.42-8.07,7.14L219.47,301s-1-21.72-3.3-24.41c-.12-.1-.3,0-.43-.14a11.62,11.62,0,0,0-.58-1.31S197,247.91,192.31,248.85s-4,6.11,6.37,23.62l1.38,3.81-15.89-21a53,53,0,1,0-21.55,14.18l5.69,7.47a47.06,47.06,0,0,0-6.79,3.63c-4.72,3.07-8.78,5.35-10.55,8.25-1.65,2.6,1.83,8.6,4.14,8.47a22.33,22.33,0,0,0,8.25-2.21,16.85,16.85,0,0,0-5.19,5.66c-1,2,2.78,8,5,8.25a16.34,16.34,0,0,0,8.4-2.46,10.61,10.61,0,0,0-2.86,3.81c-.51,1.65,3,6.6,5.12,6.6a13.53,13.53,0,0,0,4.83-1.33,7.2,7.2,0,0,0-1.48,2.14c-.57,1.24,2.16,5.23,3.82,5.35a9.46,9.46,0,0,0,5-1.11,18.44,18.44,0,0,0,5.75,3.3,22.38,22.38,0,0,1,4.65,4.82l-1.65,1.42,6.78,7.67-4.35,3.68,70.56,83,65.61-11.55Z"/><path class="cls-18" d="M238.22,317.19s-32.07-41.26-33.11-43.8c0,0-32.11,3.1-29,20.79,2.9,4.16,3.45,9.15,6.37,13.34,1.06,1.53,2.42,4.34,3.94,6.38a21.62,21.62,0,0,0,9.9,8c2,.68,11.44,13.9,15.07,17.3S226.48,327.62,235,320C236.19,319,237.19,318.09,238.22,317.19Z"/><path class="cls-19" d="M224.42,297.65s-1-21.72-3.3-24.41c-.12-.1-.3,0-.43-.15a12.34,12.34,0,0,0-.58-1.3S202,244.61,197.26,245.55s-4,6.11,6.37,23.62l4.29,11.73-.27.21s-7.27,14.74-3.71,22.64c1.75,3.87,20.17,26.41,20.17,26.41s12.19-10.88,15.54-14.44Z"/><polygon class="cls-20" points="218.08 349.2 253.41 313.99 236.53 295.34 199.45 328.11 218.08 349.2"/><polygon class="cls-21" points="246.71 301.58 201.88 339.46 272.44 422.42 338.05 410.9 246.71 301.58"/><polygon class="cls-22" points="232.64 313.46 201.88 339.46 272.44 422.42 317.01 414.6 232.64 313.46"/><path class="cls-23" d="M230.13,306.28l-42-55.73c-1.24-1.65-3.91-1.8-6.6-.57l47.36,62.78C230.79,310.57,231.38,307.93,230.13,306.28Z"/><path class="cls-23" d="M170.38,258.06c-3.11,2.36-4.39,5.93-2.89,8l42.08,55.74c1.53,2.06,5.33,1.82,8.45-.54l1.4-1.08L171.78,257Z"/><path class="cls-24" d="M228.88,312.76l-47.36-62.7a11.62,11.62,0,0,0-1.92,1.15l-7.82,5.91,47.69,63.05,7.8-5.87A12.33,12.33,0,0,0,228.88,312.76Z"/><path class="cls-25" d="M178.22,253.57a47.5,47.5,0,1,1,9.31-66.51h0A47.51,47.51,0,0,1,178.22,253.57Z"/><path class="cls-26" d="M192.41,184.07A53.05,53.05,0,1,0,182,258.42a53.06,53.06,0,0,0,10.38-74.35ZM115,242.5a45.7,45.7,0,1,1,.09.11Z"/><path class="cls-20" d="M119.73,200.35c9.44-19.17,30.45-28.33,47.86-21.45a17.8,17.8,0,0,0-2.38-1.32c-17.94-8.84-40.48.25-50.39,20.33s-3.3,43.52,14.58,52.33a24.86,24.86,0,0,0,2.48,1.09C115.84,241.71,110.28,219.53,119.73,200.35Z"/><path class="cls-27" d="M187,273.18c2.27,3.58-3.3,9.24-12.3,15.06-5.59,3.58-10.92,5.61-14.67,5.71-2.31.13-5.72-5.87-4.14-8.46,1.77-2.89,5.83-5.17,10.55-8.25C175.43,271.44,184.65,269.63,187,273.18Z"/><path class="cls-27" d="M193,284.58c2.34,3.6-4.51,10.87-13.52,16.68-5.06,3.3-8.83,4.51-11.55,4.33-2.09-.2-5.87-6.21-5-8.25,1.12-2.36,3.85-4.95,8.66-8.07C180.72,283.44,190.61,281,193,284.58Z"/><path class="cls-27" d="M199,296.44c2.06,3.31-2.51,7.66-10.58,12.88-4.32,2.82-7.52,4.06-9.9,4.14s-5.62-4.95-5.11-6.6c.77-2.08,3.07-4.52,7.87-7.54C189.37,294.15,196.93,293.21,199,296.44Z"/><path class="cls-27" d="M201.12,306c1.52,2.35-2,7.35-7.87,11.09-3.1,2-5.6,2.76-7.51,2.54s-4.39-4.11-3.83-5.34c.69-1.65,2.58-3.52,5.89-5.6C193.64,304.86,199.67,303.69,201.12,306Z"/><path class="cls-28" d="M178.22,278.71a3.7,3.7,0,0,0,5.14.77,3.77,3.77,0,0,0,1.82-5,3.83,3.83,0,0,0-5.18-.73A3.78,3.78,0,0,0,178.22,278.71Z"/><path class="cls-28" d="M184.82,213.89a3.94,3.94,0,1,0,2.49-5,3.81,3.81,0,0,0-.84.4A3.49,3.49,0,0,0,184.82,213.89Z"/><path class="cls-28" d="M192.19,300.44a3,3,0,0,0,4.14.53,2.86,2.86,0,0,0,1.44-3.8l0-.08a2.91,2.91,0,0,0-4.06-.64l0,0A3,3,0,0,0,192.19,300.44Z"/><path class="cls-28" d="M195.2,310.06a2.45,2.45,0,0,0,3.41.64l.07-.05a2.53,2.53,0,0,0,1.14-3.3,2.48,2.48,0,0,0-3.45-.59,2.43,2.43,0,0,0-1.22,3.21Z"/></g></g></g></svg>