<svg xmlns="http://www.w3.org/2000/svg" xmlns:xlink="http://www.w3.org/1999/xlink" viewBox="0 0 532.37 354.91"><defs><style>.cls-1{isolation:isolate;}.cls-2{fill:#70cff9;}.cls-3{fill:#58ade6;}.cls-4,.cls-8{fill:none;stroke-linecap:round;stroke-linejoin:round;stroke-width:2px;}.cls-4{stroke:#243d4c;}.cls-5{fill:url(#linear-gradient);}.cls-6{fill:#7d94be;}.cls-7{fill:#18324f;}.cls-8{stroke:#fff;}.cls-9{fill:#152942;}.cls-10{fill:#fff;}.cls-11{fill:#ff7694;mix-blend-mode:multiply;}.cls-12{fill:url(#linear-gradient-2);}.cls-13{fill:#fc6;}.cls-14{fill:#fedd8e;}</style><linearGradient id="linear-gradient" x1="441.95" y1="337.64" x2="441.95" y2="215.37" gradientUnits="userSpaceOnUse"><stop offset="0.01" stop-color="#edf2f8" stop-opacity="0"/><stop offset="0.35" stop-color="#cff2f8"/></linearGradient><linearGradient id="linear-gradient-2" x1="452.66" y1="196.13" x2="456.85" y2="203.39" gradientUnits="userSpaceOnUse"><stop offset="0.07" stop-color="#5f6f91"/><stop offset="0.88" stop-color="#5f6f91" stop-opacity="0"/></linearGradient></defs><title>Asset 7</title><g class="cls-1"><g id="Layer_2" data-name="Layer 2"><g id="BACKGROUND"><path class="cls-2" d="M532.37,261.13c-63.93-3.85-154.08,15.95-154.08-85.69,0-137.88-203.61-32.18-203.61-113.47,0-25.1-6.08-46.61-19.89-62H0V37.56c66.32,0,60.61,27.34,60.61,86.71s99.07,68.63,99.07,129.17,94.51,58.95,119.77,84.2a52.36,52.36,0,0,1,10.95,17.27h242Z"/></g><g id="OBJECTS"><path class="cls-3" d="M501.62,157.57a9.27,9.27,0,0,0-9.19,8.51q0,.36,0,.72a9.2,9.2,0,0,0,7.67,9.1.68.68,0,0,1,.44.27l1.15,1.55,1-1.51a.71.71,0,0,1,.47-.3,9.23,9.23,0,0,0-1.5-18.34Z"/><path class="cls-3" d="M491,167.13a6.37,6.37,0,0,0-3.12,5.45,6.31,6.31,0,0,0,5.26,6.24.71.71,0,0,1,.44.27l.64.87.55-.83a.67.67,0,0,1,.46-.3,6.36,6.36,0,0,0,3.49-1.82A10.57,10.57,0,0,1,491,167.13Z"/><path class="cls-3" d="M439.22,118.17a.75.75,0,0,1-.26,0H423.33a.85.85,0,0,1-.85-.85c0-.19,0-4.47,3.58-5.61a5.78,5.78,0,0,1,1.75-.26c.37,0,.64,0,.83,0-.07-.11-.16-.22-.23-.32A6,6,0,0,1,427,107a4.84,4.84,0,0,1,2.79-4.07l.09,0a3.47,3.47,0,0,1,1.31-.25,3.51,3.51,0,0,1,1.29.24l.1,0a4.86,4.86,0,0,1,2.79,4.07,5.91,5.91,0,0,1-1.45,4.11l-.23.32c.19,0,.46,0,.84,0a4.83,4.83,0,0,1,4.69,3,7.83,7.83,0,0,1,.63,2.85A.85.85,0,0,1,439.22,118.17Z"/><path class="cls-3" d="M398.33,159.3a5.61,5.61,0,0,1-5.61-5.6V149h-3.65a5.53,5.53,0,0,0-1.72.27,5.59,5.59,0,0,0-3.88,5.33v4.73a5.61,5.61,0,0,0,5.6,5.6h-.3a.69.69,0,0,1,.55.29l1.55,2.17,1.53-2.17a.66.66,0,0,1,.55-.29h4.75a5.52,5.52,0,0,0,1.72-.26,5.61,5.61,0,0,0,3.89-5.3.87.87,0,0,0-.22-.05Z"/><path class="cls-3" d="M409.42,141h-8.89a5.77,5.77,0,0,0-5.77,5.76v4.87a5.75,5.75,0,0,0,4,5.49,5.84,5.84,0,0,0,1.77.27h4.89a.68.68,0,0,1,.57.3l1.57,2.23,1.6-2.24a.7.7,0,0,1,.57-.29h-.32a5.76,5.76,0,0,0,5.76-5.76v-4.87a5.75,5.75,0,0,0-4-5.49A5.83,5.83,0,0,0,409.42,141Z"/><path class="cls-3" d="M397.91,208.27a5.09,5.09,0,1,1,5.08-5.09A5.1,5.1,0,0,1,397.91,208.27Zm0-7.17a2.09,2.09,0,1,0,2.08,2.08A2.09,2.09,0,0,0,397.91,201.1Z"/><path class="cls-3" d="M510.85,212.17a5.09,5.09,0,1,1,5.09-5.09A5.09,5.09,0,0,1,510.85,212.17Zm0-7.17a2.09,2.09,0,1,0,2.09,2.08A2.08,2.08,0,0,0,510.85,205Z"/><path class="cls-3" d="M496.08,108.15c-1.47-1.64-4.18-3.46-8.75-2.87a9.61,9.61,0,0,0-7.92,9.68c.26,4.94,4,9,8.42,9.21a2.6,2.6,0,0,1,.37,0,3.54,3.54,0,0,0,.63.06,1.15,1.15,0,0,0,1.28-1,1.18,1.18,0,0,0-.2-1,1.74,1.74,0,0,0-1.3-.5,4.4,4.4,0,0,1-.45,0,12.78,12.78,0,0,1-1.39-.33,7.39,7.39,0,0,1-4.79-7.7,7.47,7.47,0,0,1,6.72-6.11,7.3,7.3,0,0,1,7.42,8v.53q0,.54,0,1.08a1.68,1.68,0,0,1-.28,1.2.88.88,0,0,1-.65.23c-.56,0-1.12-.15-1.15-1.47,0-.36,0-.72,0-1.08s0-.89,0-1.33a1.15,1.15,0,0,0-1-1.21,1.17,1.17,0,0,0-1.33.84l0,.11c-.11.3-.21.6-.29.9a2.21,2.21,0,0,1-2.45,1.74,2.3,2.3,0,0,1-2.31-2.16c-.14-.82,0-1.89,2.21-2.77l.21-.08c.43-.15,1.43-.51,1.08-1.65a1.27,1.27,0,0,0-1.58-.77l-.26,0a3.29,3.29,0,0,0-1.16.27,5.17,5.17,0,0,0-2.73,2.87,4.74,4.74,0,0,0,0,3.68,5.28,5.28,0,0,0,3,2.84,4.66,4.66,0,0,0,3.68-.18c.78-.38.85-.31,1.22.4a3.22,3.22,0,0,0,3.29,1.57,3.12,3.12,0,0,0,2.87-2.3A12,12,0,0,0,496.08,108.15Z"/><path class="cls-4" d="M86.17,62.29c.4-2.37,1.81-6.94,1.81-6.94l3.84,1.51S87.92,60.51,86.17,62.29Z"/><path class="cls-4" d="M104.79,35.23c-.4-.29-.76,0-1.1.16q-12.14,4.88-24.25,9.77c-2.57,1-5.13,2.1-7.74,3.17.15.19.19.3.26.32l10,4.07c.87,3.1,1.74,6.19,2.64,9.28.36,1.23,1.6.29,1.6.29A54.39,54.39,0,0,1,88,55.35h0c1.19.45,9,3.57,11,4.33,1.46.56,2,.28,2.24-1.28q1.92-11,3.83-22C105.08,36,105.24,35.55,104.79,35.23Z"/><path class="cls-4" d="M103.28,36.67c-.22,1.33-9.86,11.95-13.71,16.48-.58.68-1.59,2.2-1.59,2.2s-1.41,4.57-1.81,6.94c-.94,1-1.24.94-1.6-.29-.9-3.09-1.77-6.18-2.64-9.28,6.87-5.24,21.09-16,21.32-16.08Z"/><path class="cls-5" d="M507.51,233.21c-8.86-9.88-36.73-18.3-50-17.82-12.39.45-43.87,13.67-46.74,16.54-1.26,1.26-7.19,21.47-13.5,43.89l-13.17-33.88-19.06,3.95s-1.14,3.3,0,11,15.28,80.78,15.28,80.78h139S514.33,240.8,507.51,233.21Z"/><path class="cls-6" d="M381,230.13s6.25-4.67,6.25-6.95-.11-10.18,1-12.46.24-3.36-2.63-2.4-5.28,11.15-5.28,11.15-2.87-22.17-3.23-24.93-3.6-3.12-3.36,1.2,0,13.78,0,13.78-11.85.47-12.93,5.63,1.08,15.1,5.75,18.58l1.32,9.83,13.42-3.12Z"/><path class="cls-6" d="M447.69,200.24s-.72,13.95-5.75,20.43c0,0,13.9,12,29.48,0,0,0-7.91-14.63-3.12-37.4,0,0,9.59-3.83,6.95-24s-43.05-39.07-49.85-5c-1.44,7.19-.72,35,0,40S432.35,203.53,447.69,200.24Z"/><path class="cls-7" d="M460.75,157.63V177.1h1.68s1-8.36,6.83-6.41-1,12.58-1,12.58l-1.55,3.6s12-4.68,12-23.73a7.46,7.46,0,0,0-1.93-5.25s6.48-13.45-9.22-17.76c0,0-6.83-14-22.89-5.64,0,0-13.3-9.46-22.29,2s2.81,18.84,2.81,18.84S444.81,152.83,460.75,157.63Z"/><path class="cls-8" d="M437.22,168.08c.88,2.32,2.25,5.14.75,6.9s-4,3.64-2.9,5.5c.9,1.5,4.35.72,4.35.72"/><path class="cls-9" d="M447.14,173.05a2.1,2.1,0,1,1-1.91-2.28A2.11,2.11,0,0,1,447.14,173.05Z"/><path class="cls-9" d="M433.91,173.52a2.1,2.1,0,1,1-1.91-2.28A2.11,2.11,0,0,1,433.91,173.52Z"/><path class="cls-10" d="M443.59,183a9.41,9.41,0,0,1-8.53,2.66s1.7,3.34,5.26,2.39C445,186.79,443.59,183,443.59,183Z"/><path class="cls-9" d="M442.37,165.38a4.56,4.56,0,0,1,2.56-1.42,7,7,0,0,1,2.89,0,6,6,0,0,1,2.63,1.24,4.84,4.84,0,0,1,1.62,2.35.53.53,0,0,1-.37.67.58.58,0,0,1-.37,0l0,0c-.8-.37-1.43-.73-2.09-1a13,13,0,0,0-2-.72,11,11,0,0,0-2.1-.37,8.36,8.36,0,0,0-2.17.12h-.1a.52.52,0,0,1-.6-.41A.53.53,0,0,1,442.37,165.38Z"/><path class="cls-9" d="M426.33,168.45a2.47,2.47,0,0,1,.4-1.75,3.26,3.26,0,0,1,1.36-1.19,3.75,3.75,0,0,1,1.68-.34,3.34,3.34,0,0,1,1.55.43.56.56,0,0,1,.2.75.45.45,0,0,1-.22.21l-.07,0a3.74,3.74,0,0,1-.64.26l-.58.21c-.36.14-.7.25-1,.4a6.35,6.35,0,0,0-.83.48,11.11,11.11,0,0,0-.88.68l-.18.14a.49.49,0,0,1-.7-.08A.46.46,0,0,1,426.33,168.45Z"/><path class="cls-11" d="M429.19,183.9s-.3-3.49,1.87-3.32c2.61.2.27,7.24.27,7.24s-7-1.33-5.89-3.82S429.19,183.9,429.19,183.9Z"/><path class="cls-11" d="M448.07,180.24s1.24-3.29,3.12-2.2c2.27,1.3-2.88,6.65-2.88,6.65s-5.72-4.21-3.66-6S448.07,180.24,448.07,180.24Z"/><polygon class="cls-10" points="382.33 237.59 365.05 240.68 365.05 245.9 384.11 241.94 382.33 237.59"/><path class="cls-12" d="M461.59,191c-1.68,6.24-11.78,8.8-14,9.28h.09a64.16,64.16,0,0,1-.78,6.58h0C459.46,206.52,462.31,194.3,461.59,191Z"/><path class="cls-8" d="M443.72,193.21s12.62,3.28,20.23-7.2,3.61-51.75-7.83-54.88c-2.19-.6-9.06-.38-14.79,1.33"/><path class="cls-13" d="M473.8,179.43a7.49,7.49,0,1,1-5.56-9A7.5,7.5,0,0,1,473.8,179.43Z"/><path class="cls-13" d="M443.55,195.3l-.61-.14a2.09,2.09,0,0,1-1.54-2.5h0a2.08,2.08,0,0,1,2.5-1.53l.61.14a2.09,2.09,0,0,1,1.54,2.5h0A2.08,2.08,0,0,1,443.55,195.3Z"/><path class="cls-14" d="M472.75,180.07a5.88,5.88,0,1,1-4.36-7.08A5.88,5.88,0,0,1,472.75,180.07Z"/></g></g></g></svg>