<svg xmlns="http://www.w3.org/2000/svg" xmlns:xlink="http://www.w3.org/1999/xlink" viewBox="0 0 421.7 317.7"><defs><style>.cls-1{isolation:isolate;}.cls-2{fill:url(#linear-gradient);}.cls-3{fill:url(#linear-gradient-2);}.cls-4{fill:url(#linear-gradient-3);}.cls-18,.cls-22,.cls-26,.cls-30,.cls-5{opacity:0.3;}.cls-18,.cls-22,.cls-26,.cls-30,.cls-5,.cls-83,.cls-86{mix-blend-mode:multiply;}.cls-5{fill:url(#linear-gradient-4);}.cls-6{fill:url(#linear-gradient-5);}.cls-7{fill:url(#linear-gradient-6);}.cls-8{fill:url(#linear-gradient-7);}.cls-9{fill:url(#linear-gradient-8);}.cls-10{fill:url(#linear-gradient-9);}.cls-11{fill:url(#linear-gradient-10);}.cls-12{fill:url(#linear-gradient-11);}.cls-13{fill:url(#linear-gradient-12);}.cls-14{fill:url(#linear-gradient-13);}.cls-15{fill:url(#linear-gradient-14);}.cls-16{fill:url(#linear-gradient-15);}.cls-17{fill:url(#linear-gradient-16);}.cls-18{fill:url(#linear-gradient-17);}.cls-19{fill:url(#linear-gradient-18);}.cls-20{fill:url(#linear-gradient-19);}.cls-21{fill:url(#linear-gradient-20);}.cls-22{fill:url(#linear-gradient-21);}.cls-23{fill:url(#linear-gradient-22);}.cls-24{fill:url(#linear-gradient-23);}.cls-25{fill:url(#linear-gradient-24);}.cls-26{fill:url(#linear-gradient-25);}.cls-27{fill:url(#linear-gradient-26);}.cls-28{fill:url(#linear-gradient-27);}.cls-29{fill:url(#linear-gradient-28);}.cls-30{fill:url(#linear-gradient-29);}.cls-31{fill:url(#linear-gradient-30);}.cls-32{fill:url(#linear-gradient-31);}.cls-33{fill:url(#linear-gradient-32);}.cls-34{fill:url(#linear-gradient-33);}.cls-35{fill:url(#linear-gradient-34);}.cls-36{fill:url(#linear-gradient-35);}.cls-37{fill:#545cda;}.cls-38{fill:#32323f;}.cls-39{fill:#2e3190;}.cls-40{fill:#dbd9e2;}.cls-41{fill:#49d2ff;}.cls-42{fill:#fff;}.cls-43{fill:aqua;}.cls-44,.cls-55{fill:#ecffff;}.cls-45{fill:url(#Degradado_sin_nombre_46);}.cls-46{fill:url(#Degradado_sin_nombre_46-2);}.cls-47{fill:url(#Degradado_sin_nombre_39);}.cls-48{fill:url(#Degradado_sin_nombre_60);}.cls-49{fill:url(#Degradado_sin_nombre_60-2);}.cls-50{fill:url(#Degradado_sin_nombre_60-3);}.cls-51{fill:url(#Degradado_sin_nombre_60-4);}.cls-52{fill:url(#Degradado_sin_nombre_60-5);}.cls-53{fill:url(#Degradado_sin_nombre_46-3);}.cls-54{opacity:0.26;}.cls-55{mix-blend-mode:overlay;}.cls-56{fill:url(#Degradado_sin_nombre_46-4);}.cls-57{fill:url(#Degradado_sin_nombre_46-5);}.cls-58{fill:url(#Degradado_sin_nombre_60-6);}.cls-59{fill:url(#Degradado_sin_nombre_46-6);}.cls-60{fill:url(#Degradado_sin_nombre_46-7);}.cls-61{fill:url(#linear-gradient-36);}.cls-62{fill:url(#linear-gradient-37);}.cls-63{fill:url(#linear-gradient-38);}.cls-64{fill:url(#linear-gradient-39);}.cls-65{fill:url(#linear-gradient-40);}.cls-66{fill:url(#linear-gradient-41);}.cls-67{fill:url(#linear-gradient-42);}.cls-68{fill:url(#linear-gradient-43);}.cls-69{fill:url(#linear-gradient-44);}.cls-70{fill:url(#linear-gradient-45);}.cls-71{fill:url(#linear-gradient-46);}.cls-72{fill:url(#linear-gradient-47);}.cls-73{fill:url(#linear-gradient-48);}.cls-74{fill:url(#linear-gradient-49);}.cls-75{fill:url(#linear-gradient-50);}.cls-76{fill:url(#linear-gradient-51);}.cls-77{fill:url(#linear-gradient-52);}.cls-78{fill:url(#linear-gradient-53);}.cls-79{fill:url(#linear-gradient-54);}.cls-80{fill:url(#linear-gradient-55);}.cls-81{fill:url(#linear-gradient-56);}.cls-82{fill:url(#linear-gradient-57);}.cls-84{fill:url(#linear-gradient-58);}.cls-85{fill:url(#linear-gradient-59);}.cls-86{fill:url(#linear-gradient-60);}.cls-87{fill:url(#linear-gradient-61);}.cls-88{fill:url(#linear-gradient-62);}.cls-89{fill:url(#linear-gradient-63);}</style><linearGradient id="linear-gradient" x1="195.03" y1="256.11" x2="234.84" y2="94.19" gradientUnits="userSpaceOnUse"><stop offset="0" stop-color="#fff"/><stop offset="0.33" stop-color="#fbfbfc"/><stop offset="0.64" stop-color="#f1f0f3"/><stop offset="0.95" stop-color="#dedde5"/><stop offset="1" stop-color="#dbd9e2"/></linearGradient><linearGradient id="linear-gradient-2" x1="177.78" y1="307.99" x2="147.26" y2="102.28" xlink:href="#linear-gradient"/><linearGradient id="linear-gradient-3" x1="170.06" y1="151.65" x2="187.97" y2="73.35" xlink:href="#linear-gradient"/><linearGradient id="linear-gradient-4" x1="177.51" y1="119.62" x2="186.16" y2="81.8" gradientUnits="userSpaceOnUse"><stop offset="0" stop-color="#545cda"/><stop offset="0.08" stop-color="#5368de"/><stop offset="0.51" stop-color="#4ea1f0"/><stop offset="0.83" stop-color="#4ac5fb"/><stop offset="1" stop-color="#49d2ff"/></linearGradient><linearGradient id="linear-gradient-5" x1="6.44" y1="269.65" x2="35.59" y2="219.16" xlink:href="#linear-gradient"/><linearGradient id="linear-gradient-6" x1="16.4" y1="274.83" x2="-27.83" y2="185.86" xlink:href="#linear-gradient"/><linearGradient id="linear-gradient-7" x1="-14.04" y1="227.08" x2="15.16" y2="181.29" xlink:href="#linear-gradient"/><linearGradient id="linear-gradient-8" x1="286.3" y1="239.42" x2="365.93" y2="118.65" xlink:href="#linear-gradient"/><linearGradient id="linear-gradient-9" x1="339.17" y1="179.1" x2="279.45" y2="100.79" xlink:href="#linear-gradient"/><linearGradient id="linear-gradient-10" x1="304.18" y1="125.26" x2="343.33" y2="59.57" xlink:href="#linear-gradient"/><linearGradient id="linear-gradient-11" x1="387.18" y1="304.11" x2="466.81" y2="183.33" xlink:href="#linear-gradient"/><linearGradient id="linear-gradient-12" x1="427.85" y1="276.71" x2="362.15" y2="206.37" xlink:href="#linear-gradient"/><linearGradient id="linear-gradient-13" x1="390.97" y1="226.03" x2="414.19" y2="192.19" xlink:href="#linear-gradient"/><linearGradient id="linear-gradient-14" x1="278.72" y1="321.7" x2="315.21" y2="163.76" xlink:href="#linear-gradient-4"/><linearGradient id="linear-gradient-15" x1="258.62" y1="323.83" x2="235.39" y2="213.67" xlink:href="#linear-gradient-4"/><linearGradient id="linear-gradient-16" x1="259.7" y1="223.7" x2="270.32" y2="142.07" xlink:href="#linear-gradient-4"/><linearGradient id="linear-gradient-17" x1="262.84" y1="202.05" x2="269.88" y2="147.91" xlink:href="#linear-gradient-4"/><linearGradient id="linear-gradient-18" x1="81.55" y1="274.61" x2="116.05" y2="146.54" xlink:href="#linear-gradient-4"/><linearGradient id="linear-gradient-19" x1="81.88" y1="326.6" x2="22.82" y2="160.7" xlink:href="#linear-gradient-4"/><linearGradient id="linear-gradient-20" x1="44.64" y1="185.04" x2="75.16" y2="102.09" xlink:href="#linear-gradient-4"/><linearGradient id="linear-gradient-21" x1="54.58" y1="158.48" x2="73.17" y2="107.98" xlink:href="#linear-gradient-4"/><linearGradient id="linear-gradient-22" x1="129.05" y1="326.76" x2="172.84" y2="193.37" xlink:href="#linear-gradient"/><linearGradient id="linear-gradient-23" x1="144.9" y1="339.8" x2="102.43" y2="242.91" xlink:href="#linear-gradient"/><linearGradient id="linear-gradient-24" x1="120.38" y1="243.06" x2="132.33" y2="166.08" xlink:href="#linear-gradient"/><linearGradient id="linear-gradient-25" x1="124.25" y1="219" x2="131.42" y2="172.77" xlink:href="#linear-gradient-4"/><linearGradient id="linear-gradient-26" x1="366.79" y1="321.4" x2="396.65" y2="207.26" xlink:href="#linear-gradient"/><linearGradient id="linear-gradient-27" x1="357.63" y1="327.87" x2="325.78" y2="230.99" xlink:href="#linear-gradient"/><linearGradient id="linear-gradient-28" x1="351.58" y1="261.19" x2="360.21" y2="194.17" xlink:href="#linear-gradient"/><linearGradient id="linear-gradient-29" x1="354.88" y1="236.78" x2="359.7" y2="199.3" xlink:href="#linear-gradient-4"/><linearGradient id="linear-gradient-30" x1="39.73" y1="333.89" x2="83.53" y2="245.63" xlink:href="#linear-gradient-4"/><linearGradient id="linear-gradient-31" x1="47.32" y1="342.28" x2="4.85" y2="261.99" xlink:href="#linear-gradient-4"/><linearGradient id="linear-gradient-32" x1="22.23" y1="280.42" x2="46.12" y2="230.65" xlink:href="#linear-gradient-4"/><linearGradient id="linear-gradient-33" x1="195.84" y1="341.37" x2="225.04" y2="245.81" xlink:href="#linear-gradient-4"/><linearGradient id="linear-gradient-34" x1="195.16" y1="348.06" x2="157.34" y2="259.8" xlink:href="#linear-gradient-4"/><linearGradient id="linear-gradient-35" x1="174.13" y1="294.87" x2="196.69" y2="223.2" xlink:href="#linear-gradient-4"/><linearGradient id="Degradado_sin_nombre_46" x1="196.73" y1="112.18" x2="291.37" y2="-9.84" gradientUnits="userSpaceOnUse"><stop offset="0" stop-color="#252526"/><stop offset="1" stop-color="#325d80"/></linearGradient><linearGradient id="Degradado_sin_nombre_46-2" x1="138.83" y1="-144.57" x2="188.6" y2="-231.24" gradientTransform="matrix(0.87, -0.51, 0, 1, 87.99, 354.97)" xlink:href="#Degradado_sin_nombre_46"/><radialGradient id="Degradado_sin_nombre_39" cx="-188.33" cy="-378.02" r="56.27" gradientTransform="matrix(0.5, -0.29, 0, 0.61, 331.08, 247.89)" xlink:href="#linear-gradient"/><linearGradient id="Degradado_sin_nombre_60" x1="161.02" y1="-137.34" x2="173.65" y2="-154.85" gradientTransform="matrix(0.87, -0.51, 0, 1, 87.99, 354.97)" gradientUnits="userSpaceOnUse"><stop offset="0" stop-color="#545cda"/><stop offset="0.19" stop-color="#5460db"/><stop offset="0.37" stop-color="#536bdf"/><stop offset="0.55" stop-color="#517ee5"/><stop offset="0.73" stop-color="#4e99ed"/><stop offset="0.9" stop-color="#4bbcf8"/><stop offset="1" stop-color="#49d2ff"/></linearGradient><linearGradient id="Degradado_sin_nombre_60-2" x1="151.87" y1="-144.64" x2="164.31" y2="-161.89" xlink:href="#Degradado_sin_nombre_60"/><linearGradient id="Degradado_sin_nombre_60-3" x1="171.07" y1="-129.7" x2="183.62" y2="-147.1" xlink:href="#Degradado_sin_nombre_60"/><linearGradient id="Degradado_sin_nombre_60-4" x1="161.88" y1="-246.83" x2="178.19" y2="-246.83" xlink:href="#Degradado_sin_nombre_60"/><linearGradient id="Degradado_sin_nombre_60-5" x1="149.69" y1="-179" x2="181.99" y2="-226.03" xlink:href="#Degradado_sin_nombre_60"/><linearGradient id="Degradado_sin_nombre_46-3" x1="160.34" y1="-191.11" x2="175.51" y2="-217.11" gradientTransform="matrix(0.87, -0.51, 0, 1, 87.99, 354.97)" xlink:href="#Degradado_sin_nombre_46"/><linearGradient id="Degradado_sin_nombre_46-4" x1="84.06" y1="125.64" x2="178.7" y2="3.62" xlink:href="#Degradado_sin_nombre_46"/><linearGradient id="Degradado_sin_nombre_46-5" x1="9.97" y1="-196.18" x2="59.73" y2="-282.86" gradientTransform="matrix(0.87, -0.51, 0, 1, 87.99, 354.97)" xlink:href="#Degradado_sin_nombre_46"/><linearGradient id="Degradado_sin_nombre_60-6" x1="103.82" y1="63.67" x2="113.51" y2="45.75" gradientTransform="matrix(1, 0, 0, 1, 0, 0)" xlink:href="#Degradado_sin_nombre_60"/><linearGradient id="Degradado_sin_nombre_46-6" x1="106.94" y1="50.67" x2="110.2" y2="50.67" xlink:href="#Degradado_sin_nombre_46"/><linearGradient id="Degradado_sin_nombre_46-7" x1="106.94" y1="59.25" x2="110.2" y2="59.25" xlink:href="#Degradado_sin_nombre_46"/><linearGradient id="linear-gradient-36" x1="129.18" y1="177.28" x2="132.96" y2="177.28" gradientUnits="userSpaceOnUse"><stop offset="0" stop-color="#545cda"/><stop offset="0.29" stop-color="#474dc1"/><stop offset="0.75" stop-color="#35399d"/><stop offset="1" stop-color="#2e3190"/></linearGradient><linearGradient id="linear-gradient-37" x1="142.37" y1="154.53" x2="146.59" y2="154.53" xlink:href="#linear-gradient-36"/><linearGradient id="linear-gradient-38" x1="130.38" y1="170.43" x2="130.83" y2="170.43" xlink:href="#linear-gradient-36"/><linearGradient id="linear-gradient-39" x1="130.14" y1="170.38" x2="131.13" y2="170.38" xlink:href="#linear-gradient-36"/><linearGradient id="linear-gradient-40" x1="141.35" y1="167.49" x2="106.96" y2="150.66" gradientUnits="userSpaceOnUse"><stop offset="0" stop-color="#2e3190"/><stop offset="0.25" stop-color="#35399d"/><stop offset="0.71" stop-color="#474dc1"/><stop offset="1" stop-color="#545cda"/></linearGradient><linearGradient id="linear-gradient-41" x1="130.06" y1="145.66" x2="143.94" y2="145.66" xlink:href="#linear-gradient-36"/><linearGradient id="linear-gradient-42" x1="112.86" y1="173.28" x2="126.32" y2="173.28" xlink:href="#linear-gradient-36"/><linearGradient id="linear-gradient-43" x1="127.49" y1="146.9" x2="141.97" y2="146.9" xlink:href="#linear-gradient-36"/><linearGradient id="linear-gradient-44" x1="124.1" y1="172.89" x2="126.32" y2="172.89" xlink:href="#linear-gradient-36"/><linearGradient id="linear-gradient-45" x1="136.06" y1="151.49" x2="138.82" y2="151.49" xlink:href="#linear-gradient-36"/><linearGradient id="linear-gradient-46" x1="113.45" y1="161.53" x2="126.26" y2="161.53" xlink:href="#linear-gradient-36"/><linearGradient id="linear-gradient-47" x1="117.9" y1="152.89" x2="131.8" y2="152.89" xlink:href="#linear-gradient-36"/><linearGradient id="linear-gradient-48" x1="110.11" y1="164.57" x2="125.36" y2="164.57" xlink:href="#linear-gradient-36"/><linearGradient id="linear-gradient-49" x1="110.11" y1="167.81" x2="122.03" y2="167.81" xlink:href="#linear-gradient-36"/><linearGradient id="linear-gradient-50" x1="119.89" y1="149.66" x2="132.8" y2="149.66" xlink:href="#linear-gradient-36"/><linearGradient id="linear-gradient-51" x1="120.89" y1="146.64" x2="135.6" y2="146.64" xlink:href="#linear-gradient-36"/><linearGradient id="linear-gradient-52" x1="114.59" y1="154.04" x2="129.81" y2="154.04" xlink:href="#linear-gradient-36"/><linearGradient id="linear-gradient-53" x1="122.02" y1="164.01" x2="146.6" y2="164.01" xlink:href="#linear-gradient-36"/><linearGradient id="linear-gradient-54" x1="112.68" y1="155.81" x2="126.5" y2="155.81" xlink:href="#linear-gradient-36"/><linearGradient id="linear-gradient-55" x1="112.68" y1="158.79" x2="126.26" y2="158.79" xlink:href="#linear-gradient-36"/><linearGradient id="linear-gradient-56" x1="170.22" y1="37.89" x2="195.36" y2="37.89" xlink:href="#linear-gradient-4"/><linearGradient id="linear-gradient-57" x1="166.34" y1="104.24" x2="189.22" y2="57.15" xlink:href="#linear-gradient-36"/><linearGradient id="linear-gradient-58" x1="1481.69" y1="121.08" x2="1514.87" y2="121.08" gradientTransform="translate(-1166.07)" xlink:href="#linear-gradient-4"/><linearGradient id="linear-gradient-59" x1="165.36" y1="241.34" x2="212.14" y2="241.34" xlink:href="#linear-gradient"/><linearGradient id="linear-gradient-60" x1="173.05" y1="241.34" x2="204.46" y2="241.34" xlink:href="#linear-gradient"/><linearGradient id="linear-gradient-61" x1="161.32" y1="237.93" x2="212.14" y2="237.93" xlink:href="#linear-gradient"/><linearGradient id="linear-gradient-62" x1="187.62" y1="243.58" x2="195.2" y2="243.58" xlink:href="#linear-gradient"/><linearGradient id="linear-gradient-63" x1="161.32" y1="226.6" x2="188.85" y2="226.6" xlink:href="#linear-gradient"/></defs><title>Asset 4</title><g class="cls-1"><g id="Layer_2" data-name="Layer 2"><g id="OBJECTS"><path class="cls-2" d="M186.13,290.49V116l43.79-25.88V290.49Z"/><path class="cls-3" d="M138.35,90.12c0,.4,47.78,25.88,47.78,25.88V290.49H138.35Z"/><polygon class="cls-4" points="138.35 90.12 184.14 63.04 229.93 90.12 186.13 116 138.35 90.12"/><path class="cls-5" d="M171,83.61l9.61-5.68a6.93,6.93,0,0,1,7,0l10.05,5.94a6.92,6.92,0,0,1,0,11.91l-9.18,5.42a6.92,6.92,0,0,1-6.81.13l-10.49-5.68A6.92,6.92,0,0,1,171,83.61Z"/><path class="cls-6" d="M10.88,317.7V193l7.61-4.5V317.7Z"/><path class="cls-7" d="M2.57,188.54c0,.07,8.31,4.5,8.31,4.5V317.7H2.57Z"/><polygon class="cls-8" points="2.57 188.54 10.53 183.83 18.49 188.54 10.88 193.04 2.57 188.54"/><path class="cls-9" d="M332,245V83.6l7.62-4.5V245Z"/><path class="cls-10" d="M323.72,79.1c0,.07,8.31,4.5,8.31,4.5V245h-8.31Z"/><polygon class="cls-11" points="323.72 79.1 331.69 74.39 339.65 79.1 332.03 83.6 323.72 79.1"/><path class="cls-12" d="M414.08,317.7V197.35l7.62-4.5V317.7Z"/><path class="cls-13" d="M405.77,192.85c0,.07,8.31,4.5,8.31,4.5V317.7h-8.31Z"/><polygon class="cls-14" points="405.77 192.85 413.74 188.14 421.7 192.85 414.08 197.35 405.77 192.85"/><path class="cls-15" d="M270.24,317.7V188.44l48.67-28.76v158Z"/><path class="cls-16" d="M217.16,159.68c0,.45,53.08,28.76,53.08,28.76V317.7H217.16Z"/><polygon class="cls-17" points="217.16 159.68 268.03 129.6 318.91 159.68 270.24 188.44 217.16 159.68"/><path class="cls-18" d="M245.85,150.81l15.88-9.39a12.39,12.39,0,0,1,12.61,0L291,151.28a9.55,9.55,0,0,1,0,16.44l-15.33,9.06a12.4,12.4,0,0,1-12.2.23l-17.31-9.38A9.67,9.67,0,0,1,245.85,150.81Z"/><path class="cls-19" d="M71.55,317.7V143.21l43.79-25.89V317.7Z"/><path class="cls-20" d="M23.77,117.32c0,.4,47.78,25.89,47.78,25.89V317.7H23.77Z"/><polygon class="cls-21" points="23.77 117.33 69.56 90.25 115.34 117.33 71.55 143.21 23.77 117.33"/><path class="cls-22" d="M55.41,108.1l9-5.35a10,10,0,0,1,10.21,0l9.69,5.73a10,10,0,0,1,0,17.26l-8.62,5.1a10,10,0,0,1-9.88.18l-10.11-5.48A10,10,0,0,1,55.41,108.1Z"/><path class="cls-23" d="M131.4,317.7v-112l38-22.47V317.7Z"/><path class="cls-24" d="M89.92,183.19c0,.35,41.48,22.47,41.48,22.47v112H89.92Z"/><polygon class="cls-25" points="89.92 183.19 129.67 159.68 169.43 183.19 131.4 205.66 89.92 183.19"/><path class="cls-26" d="M113,177.92l13.8-8.16a5.64,5.64,0,0,1,5.75,0l14.16,8.37a5.66,5.66,0,0,1,0,9.74l-13.17,7.78a5.67,5.67,0,0,1-5.57.11l-14.78-8A5.66,5.66,0,0,1,113,177.92Z"/><path class="cls-27" d="M360.39,317.7v-89l38-22.47V317.7Z"/><path class="cls-28" d="M318.91,206.18c0,.35,41.48,22.47,41.48,22.47v89H318.91Z"/><polygon class="cls-29" points="318.91 206.18 358.66 182.67 398.42 206.18 360.39 228.65 318.91 206.18"/><path class="cls-30" d="M344.24,200.43l11.28-6.67a6.15,6.15,0,0,1,6.28,0l11.68,6.9a6.18,6.18,0,0,1,0,10.62l-10.78,6.37a6.17,6.17,0,0,1-6.07.11l-12.19-6.6A6.17,6.17,0,0,1,344.24,200.43Z"/><path class="cls-31" d="M41.48,317.7V266.38l38-22.47V317.7Z"/><path class="cls-32" d="M0,243.91c0,.35,41.48,22.47,41.48,22.47V317.7H0Z"/><polygon class="cls-33" points="0 243.91 39.76 220.4 79.51 243.91 41.48 266.38 0 243.91"/><path class="cls-34" d="M191.9,317.7V266.38l38-22.47V317.7Z"/><path class="cls-35" d="M150.41,243.91c0,.35,41.49,22.47,41.49,22.47V317.7H150.41Z"/><polygon class="cls-36" points="150.41 243.91 190.17 220.4 229.93 243.91 191.9 266.38 150.41 243.91"/><path class="cls-37" d="M72.55,26h0a3.73,3.73,0,0,0-1.4,2.88l-.7,15.35a7,7,0,0,0,4,6.57l12.3,6.14L88.58,53,77.89,44.62,79.68,29.8a3.63,3.63,0,0,0-.78-2.71l-.38-.49A4.27,4.27,0,0,0,72.55,26Z"/><path class="cls-38" d="M81.44,117.3c-.28-1.35-2-3.39-6.33-7.66l-4,.61a1.78,1.78,0,0,0-1,1.22,1.31,1.31,0,0,0,.62,1.37l.81.46a2.8,2.8,0,0,1,1.21,1.4,7.1,7.1,0,0,0,7.66,4.08A1.25,1.25,0,0,0,81.44,117.3Z"/><path class="cls-39" d="M80.41,61.07,77.49,90.88l-1.71,19.43c-.11,1.38-1.14,1.87-2.52,1.84a2.63,2.63,0,0,1-2.45-1.42s-2.18-18.34.6-21L68.32,65.5Z"/><path class="cls-38" d="M72,123.56c-.28-1.35-2.37-2.56-6.7-6.84l-4,.62a1.78,1.78,0,0,0-1,1.22,1.29,1.29,0,0,0,.62,1.37l.81.46a14.26,14.26,0,0,1,2.09,1.87c2.05,2.18,2.52,3.28,7.14,2.78A1.25,1.25,0,0,0,72,123.56Z"/><path class="cls-39" d="M72,66.58,67.65,98,65.94,117.4c-.12,1.38-1.14,1.86-2.53,1.83A2.62,2.62,0,0,1,61,117.82s-2.43-22.4.35-25.11l-1.55-25Z"/><path class="cls-37" d="M76.78,44.3A18.48,18.48,0,0,0,68.22,32a4.23,4.23,0,0,1-1.88-2.24,3.71,3.71,0,0,1,.33-3.14,24.12,24.12,0,0,1,5.55-1.51l.32,2S77.18,32.34,76.78,44.3Z"/><path class="cls-40" d="M69.91,30.33a2.49,2.49,0,0,1-.73-.2,2.59,2.59,0,0,1-1.55-2.27l0-.91,0-.8-.14-3.35-.05-.43.08,0,2.79,1.5,1.63.69a.54.54,0,0,1,.32.43l.21,1.78.09.7v.17A2.4,2.4,0,0,1,69.91,30.33Z"/><path class="cls-37" d="M81.11,66.92a7.12,7.12,0,0,1-2.87,2.83L77.06,63V70.5s-11.91,5.67-18.92,0c0,0,1.11-6.84,3.13-11.2a8.31,8.31,0,0,0,.39-6.23c-2.06-6-5.89-18.42-3.52-21.53a35,35,0,0,1,7.46-4.43c-1.29,1.57-2.23,4.35.76,8.57L67.93,35l-.54,2.59s9.53,4.64,10,14.15a21.83,21.83,0,0,0,0-3.39,14.78,14.78,0,0,1,.07,3.14S79.87,40,77.72,30.7l-1.92-.36,1.64-1.28a2.93,2.93,0,0,0-.1-.44c-.27-.95-1.29-3.12-5-3.12l.22,1.61-.32-2,.73-.09a16.65,16.65,0,0,1,4.11.06s6.31,4.33,3.17,24.93Z"/><path class="cls-39" d="M77.44,51.52a14.78,14.78,0,0,0-.07-3.14c-.18-1.78-.49-3.56-.57-4a.11.11,0,0,1,0,0,.16.16,0,0,1,0,0c.4-12-4.24-17.19-4.24-17.19l-.32-2,0-.13c.27,0,.52,0,.75,0a4.71,4.71,0,0,1,4.39,3.56,2.93,2.93,0,0,1,.1.44L75.8,30.34l1.92.36C79.87,40,77.44,51.52,77.44,51.52Z"/><path class="cls-39" d="M77.37,51.77c-.45-9.51-10-14.15-10-14.15L67.93,35l-1.57.65c-3-4.22-2-7-.76-8.57a6.24,6.24,0,0,1,2-1.61,5.47,5.47,0,0,0-.88,1.16,3.71,3.71,0,0,0-.33,3.14A4.23,4.23,0,0,0,68.22,32,18.48,18.48,0,0,1,76.78,44.3a.06.06,0,0,0,0,0,.11.11,0,0,0,0,0,25.46,25.46,0,0,1,.57,4A21.83,21.83,0,0,1,77.37,51.77Z"/><path class="cls-41" d="M70.5,30.31a4.76,4.76,0,0,0,2.36,2.44l-.32,2.86a20,20,0,0,1,4.16,8.33,31.72,31.72,0,0,0-1.07-10.27L73.78,32a7.46,7.46,0,0,0-.6-3.11l-1.45-1.74a10.28,10.28,0,0,0-.82,1.55A11.75,11.75,0,0,1,70.5,30.31Z"/><path class="cls-42" d="M67.62,25.27A3.15,3.15,0,0,0,70.25,27a2.56,2.56,0,0,0,1-.11,1.32,1.32,0,0,0,1-1.19,2.78,2.78,0,0,1,1.27,1.85A2.7,2.7,0,0,1,72.2,30.1l-.62-1.61v2a3.79,3.79,0,0,1-4.38-.75S65.4,28.06,67.62,25.27Z"/><path class="cls-38" d="M77.62,51.49a.12.12,0,0,0-.24,0q.2,6.38,0,12.73a.12.12,0,0,0,.24,0Q77.81,57.86,77.62,51.49Z"/><path class="cls-38" d="M77.13,53.54a1.22,1.22,0,0,0-.09-.27.56.56,0,0,0-.42-.31c-.36,0-.62.35-.7.65a2.5,2.5,0,0,0,0,1.3.38.38,0,0,0,.09.18.33.33,0,0,0,.23.09.84.84,0,0,0,.7-.42A1.78,1.78,0,0,0,77.13,53.54Z"/><path class="cls-38" d="M77.13,56.77a1.31,1.31,0,0,0-.09-.28.53.53,0,0,0-.42-.3c-.36,0-.62.35-.7.65a2.46,2.46,0,0,0,0,1.29.42.42,0,0,0,.09.19.39.39,0,0,0,.23.09.87.87,0,0,0,.7-.42A1.81,1.81,0,0,0,77.13,56.77Z"/><path class="cls-38" d="M77.13,60a1.43,1.43,0,0,0-.09-.27.56.56,0,0,0-.42-.31c-.36,0-.62.36-.7.66a2.46,2.46,0,0,0,0,1.29.34.34,0,0,0,.09.18.33.33,0,0,0,.23.09.84.84,0,0,0,.7-.42A1.78,1.78,0,0,0,77.13,60Z"/><path class="cls-42" d="M63.37,18.86c-.4-1.2-.22-2.86.8-3a1.74,1.74,0,0,1,1,.19c.43-3.58,2.66-7.74,5.21-8.21,3.33-.61,6.4.76,7.75,9.42.53,3.43-1.46,7.28-4.71,8.18-2.44.67-5.59-1.72-7.22-4.41A3.21,3.21,0,0,1,63.37,18.86Z"/><path class="cls-38" d="M70.94,17.89a.65.65,0,0,0,.64.65.68.68,0,1,0-.64-.65Z"/><path class="cls-38" d="M75.18,17.64a.62.62,0,1,0,1.23-.05.63.63,0,0,0-.64-.65A.65.65,0,0,0,75.18,17.64Z"/><path class="cls-38" d="M73.35,21.84a.23.23,0,0,0-.2-.12,1.32,1.32,0,0,1-1.46-1.19.21.21,0,0,0-.23-.19.22.22,0,0,0-.19.23,1.73,1.73,0,0,0,1.9,1.57.21.21,0,0,0,.2-.21A.29.29,0,0,0,73.35,21.84Z"/><path class="cls-38" d="M75,15.43a.18.18,0,0,0,.19,0,1.11,1.11,0,0,1,1.51.47A.18.18,0,0,0,77,16a.17.17,0,0,0,.07-.23,1.45,1.45,0,0,0-2-.64.19.19,0,0,0-.08.24Z"/><path class="cls-38" d="M70.5,16.59a.17.17,0,0,0,.17-.09,1.1,1.1,0,0,1,1.46-.61.17.17,0,0,0,.23-.09.17.17,0,0,0-.09-.23,1.46,1.46,0,0,0-1.92.77.18.18,0,0,0,.08.24Z"/><path class="cls-38" d="M75.14,20.75a.66.66,0,0,0,.33-.23c.28-.34.19-.87-.23-1.43l-1.16-1.92a.17.17,0,0,0-.22-.06.16.16,0,0,0-.06.22L75,19.27c.39.52.38.89.24,1.06a.66.66,0,0,1-.75.08.16.16,0,0,0-.22.08.14.14,0,0,0,.07.2A1.19,1.19,0,0,0,75.14,20.75Z"/><path class="cls-38" d="M77.46,9.75a4,4,0,0,0,1-2.94,2.53,2.53,0,0,1-2.62.31C75,6.8,74.2,6.23,73.34,5.87A5.46,5.46,0,0,0,65.9,9.8a1.27,1.27,0,0,0-1.23.27,3,3,0,0,0-.77,1.07,5.55,5.55,0,0,0-.67,2.45,5.82,5.82,0,0,0,.33,1.7,12.22,12.22,0,0,0,3.56,5.32,17.86,17.86,0,0,0,0-3.35l0,0c0-.6,0-1.2,0-1.79a3.11,3.11,0,0,0,1.16,1.09,4.8,4.8,0,0,1,1.33-2.47,11.79,11.79,0,0,0,1.79-2.21,5,5,0,0,1,.83,2.3,4.43,4.43,0,0,0,2.09-2.61,3.63,3.63,0,0,1,.57,2.29,3,3,0,0,0,1.26-1.65,6.85,6.85,0,0,0,1.18,2.08,3.49,3.49,0,0,1,.79,2.22,28.51,28.51,0,0,0,.33-4.89c.35.19.75-.16,1-.49A6.76,6.76,0,0,0,80.27,9,2.48,2.48,0,0,1,77.46,9.75Z"/><path class="cls-37" d="M57.14,32.53h0a4.09,4.09,0,0,0-1.4,3.08L55,52a7.56,7.56,0,0,0,4,7l12.31,6.55,1.81-4.19-10.69-9,1.79-15.83a4.08,4.08,0,0,0-.78-2.9l-.38-.52A4.09,4.09,0,0,0,57.14,32.53Z"/><path class="cls-38" d="M72.74,61c-4.06-2.1-6.56-6.16-10.28-8.71q1.08-5.34,1.89-10.72c0-.15-.21-.22-.24-.07q-.84,5.69-2,11.31c0,.15.2.21.23.06l.06-.32c3.69,2.55,6.18,6.57,10.22,8.65C72.76,61.26,72.88,61.05,72.74,61Z"/><path class="cls-38" d="M70.89,65.08A27.27,27.27,0,0,1,66,62.86l-2.35-1.31-1.21-.68-.69-.39c-.17-.09-.69-.29-.72-.51s-.26-.15-.24,0,.19.35.4.48l1.39.77,2.9,1.63a28.46,28.46,0,0,0,5.35,2.46C71,65.36,71,65.12,70.89,65.08Z"/><path class="cls-42" d="M81.14,64.83a1.17,1.17,0,0,1-.1.26,5.86,5.86,0,0,1-2.16,2.35h0c-.19.13-.38.25-.58.36h0c-.25.15-.5.29-.74.41a3.13,3.13,0,0,1-3.38-.37l-2.82-2.28,1.17-3.2c6.83-.2,6.23,1.8,6.23,1.8-.4.63-2.84.13-3,.09l2.45,1a4.86,4.86,0,0,1,2.54-1.06.52.52,0,0,1,.24.08.42.42,0,0,1,.19.38A.63.63,0,0,1,81.14,64.83Z"/><path class="cls-38" d="M81,64.26a6.6,6.6,0,0,1-3,2h-.09A5.49,5.49,0,0,1,76.82,66a.12.12,0,0,1-.08-.15.12.12,0,0,1,.14-.08,6.36,6.36,0,0,0,1,.26h0a6.17,6.17,0,0,0,2.81-1.88A.52.52,0,0,1,81,64.26Z"/><path class="cls-38" d="M81.14,64.83a1.17,1.17,0,0,1-.1.26A13.91,13.91,0,0,1,79.9,66a6.61,6.61,0,0,1-2.06,1.14.14.14,0,0,1-.11,0,6,6,0,0,1-1.13-.26c-.15,0-.09-.28.06-.23a8,8,0,0,0,1,.25h0a6.17,6.17,0,0,0,2-1.08,11,11,0,0,0,1.43-1.21A.63.63,0,0,1,81.14,64.83Z"/><path class="cls-38" d="M78.88,67.45c-.19.13-.38.25-.58.36h0c-.36.07-.72.13-1.08.17h0l-.58-.08a.12.12,0,0,1-.12-.12.12.12,0,0,1,.12-.12l.58.08h0C77.76,67.67,78.32,67.58,78.88,67.45Z"/><polygon class="cls-43" points="77.53 62.35 84.92 61.05 100.89 47.61 89.53 50.45 77.53 62.35"/><polygon class="cls-41" points="78.24 62.35 85.63 61.05 100.34 48.05 89.83 51.02 78.24 62.35"/><path class="cls-44" d="M89,56.84a1,1,0,0,0,1,.78s3.24-1.3,3.5-3.18A1.18,1.18,0,0,0,94.7,53s-1-1-1.87-.75A1.09,1.09,0,0,0,92.3,54h0a3.79,3.79,0,0,0-2.21.47A2,2,0,0,0,89,56.84Z"/><path class="cls-45" d="M250.47.42,213,22.07a10,10,0,0,0-4.54,7.81V131.1c0,5.26,5,7.78,7.48,6.33L250.47,112a10,10,0,0,0,4.53-7.81l4.56-99.88C259.56,1.46,253-1,250.47.42Z"/><path class="cls-46" d="M255.38,3.58,217.91,25.22A10,10,0,0,0,213.38,33V134.25c0,2.86,2,4,4.53,2.56l37.47-21.64a10,10,0,0,0,4.54-7.81V6.14C259.92,3.28,257.89,2.13,255.38,3.58Z"/><polygon class="cls-47" points="257.35 99.88 215.94 123.8 215.94 40.51 257.35 16.59 257.35 99.88"/><path class="cls-48" d="M239.24,118.34a6.74,6.74,0,0,1-3,5.34c-1.63.94-2.95.08-2.95-1.93a6.76,6.76,0,0,1,2.95-5.35C237.92,115.46,239.24,116.33,239.24,118.34Z"/><polygon class="cls-49" points="224.3 125.11 224.3 128.82 221.9 128.36 224.3 125.11"/><polygon class="cls-50" points="251.4 113.17 248.39 114.91 248.39 111.2 251.4 109.46 251.4 113.17"/><path class="cls-51" d="M242.93,19.61l-12.57,7.26c-.46.27-.84.06-.84-.48h0a1.87,1.87,0,0,1,.84-1.45l12.57-7.26c.47-.27.85-.06.85.48h0A1.85,1.85,0,0,1,242.93,19.61Z"/><polygon class="cls-52" points="255 65.62 217.58 87.24 217.58 56.95 255 35.33 255 65.62"/><path class="cls-53" d="M241.43,59.32c0,3.5-2.3,7.67-5.14,9.31s-5.14.13-5.14-3.37,2.3-7.67,5.14-9.31S241.43,55.82,241.43,59.32Z"/><polygon class="cls-42" points="235.16 60.22 235.16 65.66 238.48 60.91 235.16 60.22"/><g class="cls-54"><path class="cls-55" d="M233.61,30.3,215.87,40.55V64Z"/><path class="cls-55" d="M253.48,18.83l-14.9,8.6L215.87,70.57V90.22Q234.64,54.51,253.48,18.83Z"/><path class="cls-55" d="M257.43,40.91v-23q-20.81,39.44-41.56,78.9v23Z"/><path class="cls-55" d="M257.43,74.16V47.47q-19.85,37.66-39.67,75.33L238,111.14Z"/><polygon class="cls-55" points="242.92 108.27 257.43 99.89 257.43 80.28 242.92 108.27"/></g><path class="cls-56" d="M137.81,13.89,100.33,35.53a10,10,0,0,0-4.53,7.81V144.56c0,5.26,5,7.78,7.48,6.33l34.52-25.41a10,10,0,0,0,4.54-7.81l4.56-99.88C146.9,14.93,140.31,12.44,137.81,13.89Z"/><path class="cls-57" d="M142.72,17,105.25,38.68a10,10,0,0,0-4.54,7.81V147.71c0,2.86,2,4,4.54,2.57l37.47-21.65a10,10,0,0,0,4.53-7.81V19.6C147.25,16.74,145.22,15.59,142.72,17Z"/><path class="cls-58" d="M105.91,49.26V61c0,2.27,1.92,3.77,3.59,2.8h0A3.22,3.22,0,0,0,111,61V49.26c0-2.17-1.77-3.67-3.42-2.89h0A3.14,3.14,0,0,0,105.91,49.26Z"/><path class="cls-59" d="M110.2,50.67c0,1.58-.73,2.86-1.63,2.86s-1.63-1.28-1.63-2.86.73-2.85,1.63-2.85S110.2,49.1,110.2,50.67Z"/><ellipse class="cls-44" cx="108.57" cy="50.67" rx="1" ry="1.75"/><path class="cls-60" d="M110.2,59.25c0,1.57-.73,2.85-1.63,2.85s-1.63-1.28-1.63-2.85.73-2.86,1.63-2.86S110.2,57.67,110.2,59.25Z"/><ellipse class="cls-44" cx="108.57" cy="59.25" rx="1" ry="1.75"/><path class="cls-42" d="M255.29,33.54h0a.56.56,0,0,0,.06-.44l-.49-1.84a5.7,5.7,0,0,0-.37-1l-1-2a.45.45,0,0,1,.54-.62c.48.18,1.45,1.32,2.11,3.48,1-.12,1.4-.4,2.78-.51a1.3,1.3,0,0,1,1.38,1.15l.68,5.64-3.28,1.44-.29-.19-3.23-2.2-1.73-4.81s.48-1.14,1.82,1.81A.57.57,0,0,0,255.29,33.54Z"/><path class="cls-37" d="M279.87,65.19s1.61-5.65-10.49-16.76L261,36.51s-3.71-.65-3.8,3.19l6.91,13,9.06,11.36Z"/><path class="cls-42" d="M227.1,57.82c.2.15,1.7,1.33,2,1.54-.26.12-2.53-3-2.48-4.15,0-.23.22-.37.39-.23a5.58,5.58,0,0,1,1.34,1.93,15.12,15.12,0,0,1-1.08-3.58.27.27,0,0,1,.47-.2,14.8,14.8,0,0,1,1.94,4,20.46,20.46,0,0,1-.93-3.49.27.27,0,0,1,.52-.16c.37.79.93,1.93,1.53,2.94A16.16,16.16,0,0,0,232,58a1,1,0,0,0,.62-.75c.1-.57.27-1.46.46-2.14a.47.47,0,0,1,.89,0c.3.9.57,1.74.3,5.84l-2.34,1.47s-4.8-2.59-5.35-4.15A.35.35,0,0,1,227.1,57.82Z"/><path class="cls-38" d="M269.29,162.59v3.86s-.91,2.39-5.23-.79c0,0-4.81-1.23-7.18-3.81a1.76,1.76,0,0,1,.2-2.54h0a1.79,1.79,0,0,1,1.62-.33l8.2,2.36Z"/><path class="cls-38" d="M281.86,156.67V159a2.14,2.14,0,0,1-3,1.95,5.31,5.31,0,0,1-2.15-2s-3.4-2.32-4.61-5.12a2,2,0,0,1,.8-2.53h0a2,2,0,0,1,2.3.14Z"/><path class="cls-39" d="M279.3,104v24.22c2.49,4.05,2.47,16.81,2.56,29.22,0,0-3.48,1.25-5.18-1.93l-5-25.25L269,96.5Z"/><path class="cls-39" d="M269.86,135.75,271,108.57l-12.4-1c-.8,6.6,4.09,29,4.09,29l1.71,24.9c1.36,2.73,4.89,1.14,4.89,1.14C270.92,151.15,271.86,140.92,269.86,135.75Z"/><path class="cls-42" d="M260.32,51.61a1.88,1.88,0,0,0,.48.52c-.06.26-.11.53-.15.8a9.92,9.92,0,0,0-.1,1.33,6.54,6.54,0,0,0,.26,2,2.57,2.57,0,0,0,1.54,1.63c.55.22,1.14.46,1.25.52,1.54.88,3.89.12,5.73-1.25A6.84,6.84,0,0,0,275.72,51c.38-3.78-2.4-6.69-6-7.52A5.83,5.83,0,0,0,263,47a19.53,19.53,0,0,0-1.09,2.11l-1.49,1.74A.66.66,0,0,0,260.32,51.61Z"/><path class="cls-42" d="M270.58,60.05l0-3.81-5.22-.48-.19,5.58a2,2,0,0,0,1.8,2h0A3.32,3.32,0,0,0,270.58,60.05Z"/><path class="cls-38" d="M265.89,49.63c.12,0,.15.17,0,.18a1.63,1.63,0,0,0-1.26.76,6.7,6.7,0,0,0-.62,1.11c-.05.11-.23,0-.18-.07C264.3,50.7,264.78,49.73,265.89,49.63Z"/><path class="cls-38" d="M264.33,53A1.84,1.84,0,0,0,266,52c.06-.1.23,0,.18.07a2.06,2.06,0,0,1-1.88,1.09C264.19,53.19,264.21,53,264.33,53Z"/><path class="cls-38" d="M261.1,53.56a1.84,1.84,0,0,0,1.68-1c.06-.1.24,0,.18.07a2,2,0,0,1-1.88,1.09C261,53.74,261,53.56,261.1,53.56Z"/><path class="cls-38" d="M264.11,52.72c.17-.3.4-.59.77-.56a.09.09,0,1,1,0,.18c-.31,0-.48.26-.61.49S264.05,52.82,264.11,52.72Z"/><path class="cls-38" d="M263,48.05c.32.13.64.3.67.68,0,.12-.18.13-.19,0,0-.3-.32-.43-.56-.53S262.87,48,263,48.05Z"/><path class="cls-38" d="M262.18,49.39c-.11.33,0,.65.2.72s.47-.15.58-.48,0-.66-.21-.73S262.28,49.05,262.18,49.39Z"/><path class="cls-37" d="M258.5,66l12.19-5.56a6.55,6.55,0,0,1,9,4.06c1.28,4.32.54,10.93-1.61,19.15,0,0,3.68,15.5,1.64,21.83,0,0-1,3.77-6.63,4.59l-.11-8.26-1.73,8.77s-10,4.38-14.59-.72c0,0,.77-8.77,1.88-15.61a75.76,75.76,0,0,0,.77-18.36Z"/><path class="cls-39" d="M261.94,64.24h0a5.75,5.75,0,0,1,4.35-3.5,10.06,10.06,0,0,0,3.52-1.2,2.27,2.27,0,0,1,3.22.69c.05.09.1.18.14.27S273.16,66.87,261.94,64.24Z"/><path class="cls-38" d="M273.68,68.59c0-.16-.27-.16-.25,0,.57,5.59-.5,11.15-1.57,16.62,0,.16.2.22.24.07C273.18,79.79,274.25,74.21,273.68,68.59Z"/><path class="cls-38" d="M269.43,109.83c-3.86,1-8,1.87-11.51-.53-.14-.09-.26.13-.13.22,3.6,2.43,7.78,1.58,11.71.55A.13.13,0,0,0,269.43,109.83Z"/><path class="cls-38" d="M279.53,104.75a8.12,8.12,0,0,1-5.43,3.38c-.16,0-.09.26.06.24a8.39,8.39,0,0,0,5.59-3.5C279.84,104.74,279.62,104.62,279.53,104.75Z"/><path class="cls-38" d="M273.53,111.73c-.53,1.92-1.18,4.09-3.06,5.12-.14.08,0,.29.13.21,1.94-1,2.62-3.28,3.17-5.27A.12.12,0,0,0,273.53,111.73Z"/><path class="cls-38" d="M268.23,160.9a2.64,2.64,0,0,1-3.05-.48.12.12,0,0,0-.18.17,2.89,2.89,0,0,0,3.35.52C268.49,161,268.37,160.82,268.23,160.9Z"/><path class="cls-38" d="M281.18,155.9a3.44,3.44,0,0,1-3.69-.81c-.11-.12-.28.06-.17.17a3.67,3.67,0,0,0,3.92.88C281.39,156.09,281.33,155.85,281.18,155.9Z"/><path class="cls-38" d="M280.18,65.63c0-.16-.27-.16-.25,0a36.59,36.59,0,0,1-2.39,17.44c-.06.14.18.21.23.06A36.58,36.58,0,0,0,280.18,65.63Z"/><path class="cls-38" d="M272.51,61.76a5.26,5.26,0,0,1-4,3,11.52,11.52,0,0,1-2.87.17,4.64,4.64,0,0,1-2.59-.76c-.13-.09-.25.12-.13.22a5,5,0,0,0,2.64.79,11.39,11.39,0,0,0,3.19-.22,5.45,5.45,0,0,0,4-3.12C272.81,61.68,272.57,61.61,272.51,61.76Z"/><path class="cls-37" d="M261.59,74.75l-18.11,4.92a2.42,2.42,0,0,1-2.72-1.11L231.68,62.9s1.12-2.85,3.11-2.5l9.92,11.91,17.23-8.07Z"/><path class="cls-38" d="M261.09,46a4.79,4.79,0,0,1,.61-2.62.64.64,0,0,1,.26-.3.29.29,0,0,1,.26,0,1.75,1.75,0,0,1-.2-1.7,2.21,2.21,0,0,1,1.4-1.22c.37-.11.92,0,1,.36a1.64,1.64,0,0,1,.92-1A3.86,3.86,0,0,1,268,39.3a1.07,1.07,0,0,1,.49.24.43.43,0,0,1,.08.5,5.31,5.31,0,0,1,3.25.08,2.87,2.87,0,0,1,1.47,1,1.54,1.54,0,0,1,.05,1.72,3.09,3.09,0,0,1,3.22,1.75,1.66,1.66,0,0,1-.18,1.75c.05.09.09.18.14.28a.92.92,0,0,1,.3.32,2.08,2.08,0,0,1,.2.85c0,.12,0,.24,0,.36h0a1.36,1.36,0,0,1,0,.17,8.5,8.5,0,0,1,0,3,2.66,2.66,0,0,1,0,1.4,1.54,1.54,0,0,1-.65.77,6.52,6.52,0,0,1-.79,1.26,1.85,1.85,0,0,1-.42.92,1.55,1.55,0,0,1-1.29.52c-.12.06-.24.13-.37.18a10.25,10.25,0,0,1-1.62.45h0a5.35,5.35,0,0,0-.86.27c-.12.06-2.12-.12-3.79-.16-1,0-2.4-.66-2.57-1.62l-.1.23a4,4,0,0,1-.19-1.37c.06-.23.8-.25,1-.34,1.2-.49,2.33-2,1.56-3.3a1.82,1.82,0,0,0-.77-.67,2.26,2.26,0,0,1-1.33-1.72l0-.2a.93.93,0,0,1-.46.15.3.3,0,0,1-.53-.13l-.06,0a.76.76,0,0,1-.14-1.06c-.24.31-.8.14-1-.22a1.1,1.1,0,0,1-.06-.54,1.72,1.72,0,0,1-.36.49.94.94,0,0,1-.28.21v0c-.16.28-.46.29-.46,0C261.24,46.78,261.12,46.37,261.09,46Z"/><path class="cls-38" d="M369.56,105.43c-.54-2.55-1.92-4.83-2.87-7.26a43.88,43.88,0,0,1-2.26-11.27l-12.91-1.68a36.51,36.51,0,0,0-6.67,29.33,23,23,0,0,1,.75,4.49,5.54,5.54,0,0,1-1.51,4.16,5.84,5.84,0,0,0,5.43-6,11.86,11.86,0,0,0,4.43,7.51,9.52,9.52,0,0,0,6.28-4.54c-.48,1.17-1,2.34-1.43,3.52a26.89,26.89,0,0,0,8.33-7.51A14.27,14.27,0,0,0,369.56,105.43Z"/><path class="cls-37" d="M353.9,100.76h0a3.56,3.56,0,0,1,1.22,2.69l.62,14.34a6.65,6.65,0,0,1-3.52,6.14l-12.93,4.17-1.58-3.66,11.52-6.28-1.57-13.85a3.57,3.57,0,0,1,.68-2.53l.34-.46A3.58,3.58,0,0,1,353.9,100.76Z"/><path class="cls-44" d="M338.07,124.56l-1.38.38a7.52,7.52,0,0,0-3.73,2.42,16.27,16.27,0,0,1-1.9,2,.38.38,0,0,0,.31.66,3.78,3.78,0,0,0,1.39-.8,8,8,0,0,1-4,2.94s-.67,2.09,3.62-.76l-2.51,2a.41.41,0,0,0,.39.71,12.33,12.33,0,0,0,3.57-2.81l-2.54,3.37s0,2,3.87-3l-1.22,2.68s.21,2.41,4.21-5.6l1.48-.92Z"/><path class="cls-39" d="M355.12,196.11h0a2.4,2.4,0,0,1-.77,1.19,2.31,2.31,0,0,0-.82,1.54c0,.43-.12,1-.24,1.61h0c-.58,3-2.19,7.51-6.67,7,0,0-2.13.42,1-5.3,5.25-.08,5.2-6.59,5-9.2a1,1,0,0,1,1-1.06h0a8.21,8.21,0,0,1,1.56,3.2A2.15,2.15,0,0,1,355.12,196.11Z"/><polygon class="cls-39" points="355.16 195.1 354.84 202.75 353.67 203.45 352.83 196.95 355.16 195.1"/><path class="cls-44" d="M352.58,167l.54-8.65-1.31-11.76-7.35-2.89.64,21.94,3.82,26.27h0c.67,4.58-1.19,10.12-1.19,10.12a1,1,0,0,1-.08.14c4.89-.07,5.3-6.29,5.18-9.47a.77.77,0,0,1,.77-.79h0C354.11,180.8,355.09,170.34,352.58,167Z"/><path class="cls-44" d="M351.81,146.58l.41,21.5a33,33,0,0,0,1.86,10.27l6.32,17.89h3.66s.42-20.75-4-23.9l4.64-13.83s2.14-9.11,2-12.27Z"/><path class="cls-39" d="M346.88,128.1l14.74,2.84s9.52,7.14,2.61,29c-9,1.94-17,2.73-19.62-3.06l-.14-17.69c-.09-2.39.68-9.45,2.41-11.11Z"/><path class="cls-37" d="M368.25,107.78s-6.51-8.46-16.85-7.87c0,0-10.07,9-4.75,15.38l.23,12.81s6.69,4.65,14.74,2.84a25,25,0,0,1,4.54-13.15Z"/><path class="cls-39" d="M360.4,196.24h3.66s2.29,1.78,1.36,10.12c0,0,1,5.8-2.68,7.52a2.43,2.43,0,0,1-3.42-1.89C358.87,208.65,359.69,202.31,360.4,196.24Z"/><path class="cls-44" d="M360.62,195.1h2.76s1.73,1.42,1,8.06c0,0,.76,4.63-2,6a1.82,1.82,0,0,1-2.57-1.5C359.47,205,360.09,199.94,360.62,195.1Z"/><path class="cls-38" d="M361,118.3a10.47,10.47,0,0,1-5.63-1,5.53,5.53,0,0,1-2.87-3.87c0-.16-.27-.09-.25.07a5.74,5.74,0,0,0,2.88,4,10.61,10.61,0,0,0,5.87,1.12C361.12,118.55,361.12,118.29,361,118.3Z"/><path class="cls-38" d="M347.83,128.74a.14.14,0,0,0-.18,0,2.85,2.85,0,0,0-.6,1.35.13.13,0,1,0,.25.07,2.62,2.62,0,0,1,.53-1.23A.13.13,0,0,0,347.83,128.74Z"/><path class="cls-38" d="M347.75,129.09v1.34a.13.13,0,0,0,.26,0v-1.34A.13.13,0,0,0,347.75,129.09Z"/><path class="cls-38" d="M358.8,131.55a.11.11,0,0,0-.14-.05.17.17,0,0,0,0-.07c0-.17-.28-.1-.25.07a4.6,4.6,0,0,1-.07,1.81c0,.17.22.24.26.07a5,5,0,0,0,.12-1.44,5.21,5.21,0,0,1,.46,1.38c0,.17.28.1.25-.06A5,5,0,0,0,358.8,131.55Z"/><polygon class="cls-41" points="362.95 136.17 349.35 143.67 349.35 120.3 362.95 112.53 362.95 136.17"/><polygon class="cls-42" points="363.62 114.14 362.08 113.81 349.73 120.86 351.28 121.19 363.62 114.14"/><polygon class="cls-42" points="351.28 121.19 351.28 142.4 349.73 142.07 349.73 120.86 351.28 121.19"/><polygon class="cls-41" points="351.06 120.66 351.06 144.03 364.66 136.53 364.66 112.9 351.06 120.66"/><path class="cls-37" d="M369.07,108.32h0a3.56,3.56,0,0,1,1.22,2.69l.62,14.33a6.66,6.66,0,0,1-3.52,6.15l-10.71,4.35-.16-3,7.88-7.15-1.57-13.85a3.58,3.58,0,0,1,.68-2.53l.34-.45A3.56,3.56,0,0,1,369.07,108.32Z"/><path class="cls-44" d="M351.06,133.81l2.31-.19s-2.34-.2-2.52-.86c0,0,0-1.83,5.67.1l.16,3L353.73,137a2.76,2.76,0,0,1-2.92-.56,6.19,6.19,0,0,1-2.12-3.76S348.79,131.15,351.06,133.81Z"/><path class="cls-40" d="M359.9,97.28l-.2,5.43v1a2.83,2.83,0,0,1-2,2.76,2.41,2.41,0,0,1-2-.29,2.84,2.84,0,0,1-1.31-2.29,2.94,2.94,0,0,0,0-.35l.09-2.16.19-4.33Z"/><path class="cls-42" d="M363.65,90.94a1.79,1.79,0,0,0-1.07.13c-.21-3.75-2.24-8.23-4.85-8.89-3.42-.87-6.7.36-8.69,9.25-.79,3.52,1,7.66,4.32,8.81,2.48.87,5.92-1.4,7.8-4.07C362.34,96,364.7,91.2,363.65,90.94Z"/><path class="cls-38" d="M352.2,96.34a2.43,2.43,0,0,1-.35-.07.21.21,0,0,1-.15-.27.2.2,0,0,1,.27-.15,3,3,0,0,0,3.67-1.67.22.22,0,0,1,.29-.11.21.21,0,0,1,.11.28A3.37,3.37,0,0,1,352.2,96.34Z"/><path class="cls-38" d="M356.45,91.56a.65.65,0,1,1-1.28-.13.65.65,0,1,1,1.28.13Z"/><path class="cls-38" d="M352.06,91a.64.64,0,1,1-1.27-.13.64.64,0,1,1,1.27.13Z"/><path class="cls-38" d="M358.14,90.4a.23.23,0,0,1-.19-.14,1.37,1.37,0,0,0-1.74-.9.22.22,0,0,1-.28-.14.24.24,0,0,1,.14-.28,1.82,1.82,0,0,1,2.29,1.16.22.22,0,0,1-.12.28A.16.16,0,0,1,358.14,90.4Z"/><path class="cls-38" d="M352.37,88.73a.2.2,0,0,1-.2,0,1.15,1.15,0,0,0-1.6.38.18.18,0,0,1-.25.07.19.19,0,0,1-.06-.26,1.51,1.51,0,0,1,2.08-.52.19.19,0,0,1,.08.25Z"/><path class="cls-38" d="M352.66,94.44a.2.2,0,0,0,.2-.2.21.21,0,0,0-.19-.21s-.39,0-.48-.23-.08-.39.49-1.07a.22.22,0,0,0,0-.29.21.21,0,0,0-.29,0c-.54.64-.72,1.13-.55,1.5a1,1,0,0,0,.83.47Z"/><path class="cls-39" d="M354.86,104.36s-3.32,2-3.88,7.32a2.23,2.23,0,0,0,2.46,1.41l1.32-5.63-.78,6s2.52,1,3.93-.78C357.91,112.68,358.82,105,354.86,104.36Z"/><path class="cls-38" d="M354.61,105.46l0-.1a.12.12,0,0,0-.07-.07l.05,0c.12-.1-.06-.28-.18-.17-2.07,1.72-2.43,4.52-2.7,7,0,.16.24.16.26,0,.23-2.22.54-4.67,2.1-6.36a19.49,19.49,0,0,0-1.53,6.25c0,.16.24.16.25,0a19.57,19.57,0,0,1,1.62-6.43,18,18,0,0,1,1,5.84,4.1,4.1,0,0,1-.33,2c-.08.14.14.27.21.13a3.62,3.62,0,0,0,.37-1.8,20.13,20.13,0,0,0-.09-2.2,19.41,19.41,0,0,0-.69-3.44,12.54,12.54,0,0,1,2.33,7.17.13.13,0,0,0,.25,0A12.79,12.79,0,0,0,354.61,105.46Z"/><path class="cls-42" d="M359.76,101s.11,5-4.64,3.1v3.32s5.59,1.48,7.35-2.29C362.47,105.14,363.19,102.53,359.76,101Z"/><path class="cls-42" d="M354.52,100.7s-.8,2.19.6,3.41l-1.77,2.73S349.79,102.46,354.52,100.7Z"/><path class="cls-38" d="M368,107.8c-.15-.08-.28.14-.13.22a.11.11,0,0,0,0,.08.1.1,0,0,0,0,.08c0,.71-.07,1.42-.11,2.13,0,.17.25.17.26,0,0-.62.06-1.25.1-1.87a4.21,4.21,0,0,1,.69,2.23.13.13,0,0,0,.26,0,4.48,4.48,0,0,0-.7-2.33,2.16,2.16,0,0,1,.66,1,.14.14,0,0,0,.26-.07A2.43,2.43,0,0,0,368,107.8Z"/><path class="cls-38" d="M357.55,132.22a.13.13,0,0,0-.25.07,15.84,15.84,0,0,1,.37,2.15c0,.17.28.17.26,0A15.15,15.15,0,0,0,357.55,132.22Z"/><path class="cls-38" d="M340.83,126.65a14.85,14.85,0,0,0-1.57-2.7c-.09-.14-.32,0-.22.13a15.78,15.78,0,0,1,1.56,2.7C340.67,126.94,340.9,126.8,340.83,126.65Z"/><path class="cls-38" d="M351.92,145a.13.13,0,0,0-.25.07,35,35,0,0,1,.66,12.58c0,.16.24.16.26,0A35.42,35.42,0,0,0,351.92,145Z"/><path class="cls-38" d="M366.66,125.8a2.9,2.9,0,0,0-2.24,0,110.52,110.52,0,0,1-1.08-11.49c0-.16-.27-.16-.26,0a109.3,109.3,0,0,0,1.09,11.58c0,.07.06.09.12.09a.14.14,0,0,0,.18.08,2.59,2.59,0,0,1,2.06,0C366.68,126.09,366.82,125.87,366.66,125.8Z"/><path class="cls-38" d="M347,119.64c0-.17-.28-.17-.26,0a63,63,0,0,1,.07,8.8c0,.17.25.17.26,0A63,63,0,0,0,347,119.64Z"/><path class="cls-38" d="M362.84,104.76a4.11,4.11,0,0,1-1.4,1.74,7,7,0,0,1-1.9.89,7.24,7.24,0,0,1-4.1,0,.11.11,0,0,0-.08,0,12.68,12.68,0,0,0-.2-3.08c0-.17-.28-.1-.25.06a13.37,13.37,0,0,1,.19,3.16c0,.13.16.15.22.06s0,0,.05,0a7.58,7.58,0,0,0,4.35,0,7.28,7.28,0,0,0,2-1,4.28,4.28,0,0,0,1.38-1.76C363.14,104.74,362.91,104.61,362.84,104.76Z"/><path class="cls-38" d="M359.81,101.36a7.42,7.42,0,0,1-.58,1.53,3.1,3.1,0,0,1-1,1,3,3,0,0,1-3,0c-.14-.09-.28.14-.13.22a3.24,3.24,0,0,0,3.23,0,3.35,3.35,0,0,0,1.11-1,6.93,6.93,0,0,0,.68-1.72C360.11,101.27,359.86,101.2,359.81,101.36Z"/><path class="cls-38" d="M363.39,83.26a5.38,5.38,0,0,0-1.21-1.35A6.16,6.16,0,0,0,360.4,81a11.86,11.86,0,0,0-2.64-.58,9.48,9.48,0,0,0-4.39.49A6.74,6.74,0,0,0,350,83.68a19.84,19.84,0,0,1-1.54,2.79,3.73,3.73,0,0,1-1.55,1.07,4.65,4.65,0,0,0,2,.7,9.36,9.36,0,0,0-1.08,3.42c-.07,1.2.1,2.3,1.15,2.9-.45-1.08.54-4.87,1.17-7.09a7.47,7.47,0,0,0,3.07-1,1.73,1.73,0,0,0,1.49,2,6.27,6.27,0,0,0,.77-2.09l1.41,1.09a5.41,5.41,0,0,1,1.94,2.18,5.44,5.44,0,0,1-.25,3.32,3.36,3.36,0,0,0,1.49-1.3,11,11,0,0,0-.14,2.86A4,4,0,0,0,361.14,97a8.33,8.33,0,0,0,3.1-4.36,8.58,8.58,0,0,0,.16-1.35c0-.64.09-1.28.13-1.93s.09-1.29.08-1.93A8.3,8.3,0,0,0,363.39,83.26Z"/><polygon class="cls-61" points="129.9 175.82 129.18 176.65 132.96 178.85 131.81 175.71 129.9 175.82"/><polygon class="cls-62" points="143.1 156 146.59 155.27 142.79 153.07 142.37 154.31 143.1 156"/><path class="cls-63" d="M130.61,170.46l.2.09h0l-.45-.26Z"/><path class="cls-64" d="M130.38,170.3l.45.26.12.06.18,0-1-.58A1.21,1.21,0,0,0,130.38,170.3Z"/><path class="cls-65" d="M139.44,159.9h0a4.15,4.15,0,0,0-.3-.94v0a3.31,3.31,0,0,0-.47-.72v0a3,3,0,0,0-.62-.51,3.68,3.68,0,0,0-3.74.36,7.9,7.9,0,0,0-.79.54l-.57.47-.45.42-.39.41c-.12.13-.22.27-.33.4s-.23.26-.33.39l-.28.41-.28.42c-.09.14-.19.28-.27.42s-.16.31-.24.47-.17.32-.25.48l-.24.54c-.09.21-.16.42-.23.63a8,8,0,0,0-.25.79,9.07,9.07,0,0,0-.33,2.25,6.06,6.06,0,0,0,.05.76,4,4,0,0,0,.13.64c0,.16.09.31.14.45a3,3,0,0,0,.16.36,2.85,2.85,0,0,0,.16.3l.21.26a1.61,1.61,0,0,0,.22.23l1,.58.07,0,.14,0,.1,0,.18,0h.6l.28,0h.06l.09,0,.31-.08.13,0h0l.49-.18.08,0h0a5.08,5.08,0,0,0,.66-.33,7.92,7.92,0,0,0,1-.68l.3-.27.44-.41.22-.2.17-.19c.07-.07.13-.15.19-.22s.29-.34.43-.52l.15-.18a.86.86,0,0,0,.07-.1c.05-.06.08-.13.13-.19s.2-.3.29-.45.2-.29.29-.44a.05.05,0,0,0,0,0l0,0c.07-.12.13-.25.19-.38s.16-.29.23-.44.14-.27.2-.4v-.05c.07-.16.12-.32.18-.48l.18-.49a2.34,2.34,0,0,1,.09-.24l0-.11c0-.06,0-.12,0-.18s.1-.41.14-.61.06-.23.08-.35,0-.13,0-.19,0-.12,0-.18a9.11,9.11,0,0,0,.08-1A5.8,5.8,0,0,0,139.44,159.9Z"/><polygon class="cls-66" points="143.94 149.68 132.03 142.76 130.06 141.64 141.97 148.56 143.94 149.68"/><polygon class="cls-67" points="124.1 172.4 122.03 172.87 113.94 168.17 112.86 171.48 124.77 178.4 126.32 173.69 124.1 172.4"/><polygon class="cls-68" points="136.06 150.55 138.82 152.16 141.97 148.56 130.06 141.64 127.49 144.57 135.6 149.29 136.06 150.55"/><polygon class="cls-69" points="125.45 172.09 124.1 172.4 126.32 173.69 125.45 172.09"/><polygon class="cls-70" points="136.75 152.44 138.82 152.16 136.06 150.55 136.75 152.44"/><polygon class="cls-71" points="126.26 163.58 114.35 156.66 113.45 159.47 125.36 166.4 126.26 163.58"/><polygon class="cls-72" points="131.81 155.35 119.89 148.42 117.9 150.43 129.81 157.36 131.81 155.35"/><polygon class="cls-73" points="125.36 166.4 113.45 159.47 110.11 162.74 122.02 169.66 125.36 166.4"/><polygon class="cls-74" points="122.02 169.66 110.11 162.74 110.12 165.95 113.94 168.17 122.03 172.87 122.02 169.66"/><polygon class="cls-75" points="132.8 150.91 120.89 143.98 119.89 148.42 131.81 155.35 132.8 150.91"/><polygon class="cls-76" points="135.6 149.29 127.49 144.57 123.69 142.37 120.89 143.98 132.8 150.91 135.6 149.29"/><polygon class="cls-77" points="129.81 157.36 117.9 150.43 114.59 150.72 126.5 157.64 129.81 157.36"/><path class="cls-78" d="M143.2,161.84l3.4-3.15v-3.42l-3.48.73-.74-1.69.43-1.24,1.14-3.39-2-1.12-3.15,3.6-2.07.28-.69-1.89-.46-1.26-2.8,1.61-1,4.45-2,2-3.31.28-1.91,3.27,1.67,2.67-.9,2.82L122,169.66v3.21l2.07-.47,1.35-.31.87,1.59-1.55,4.72,2,1.06,2.41-2.81.72-.83,1.91-.11,1.15,3.14,2.85-1.53,1-4.7,2-1.89,3.26-.08,2-3.35-1.56-2.87Zm-3.73.22c0,.06,0,.12,0,.18s0,.13,0,.19,0,.23-.08.35-.08.4-.14.61,0,.12,0,.18l0,.11a2.34,2.34,0,0,0-.09.24l-.18.49c-.06.16-.11.32-.18.48v.05c-.06.13-.14.26-.2.4s-.15.3-.23.44-.12.26-.19.38l0,0a.05.05,0,0,1,0,0c-.09.15-.19.29-.29.44s-.19.3-.29.45-.08.13-.13.19a.86.86,0,0,1-.07.1l-.15.18c-.14.18-.29.35-.43.52s-.12.15-.19.22l-.17.19-.22.2-.44.41-.3.27a7.92,7.92,0,0,1-1,.68,5.08,5.08,0,0,1-.66.33h0l-.08,0-.49.18h0l-.13,0-.31.08-.09,0h-.06l-.28,0h-.6l-.18,0-.1,0-.14,0-.07,0-.18,0-.12-.06h0l-.2-.09-.23-.16a1.21,1.21,0,0,1-.24-.21,1.61,1.61,0,0,1-.22-.23l-.21-.26a2.85,2.85,0,0,1-.16-.3,3,3,0,0,1-.16-.36c0-.14-.1-.29-.14-.45a4,4,0,0,1-.13-.64,6.06,6.06,0,0,1-.05-.76,9.07,9.07,0,0,1,.33-2.25,8,8,0,0,1,.25-.79c.07-.21.14-.42.23-.63l.24-.54c.08-.16.16-.32.25-.48s.15-.32.24-.47.18-.28.27-.42l.28-.42.28-.41c.1-.13.22-.26.33-.39s.21-.27.33-.4l.39-.41.45-.42.57-.47a7.9,7.9,0,0,1,.79-.54,3.68,3.68,0,0,1,3.74-.36,3,3,0,0,1,.62.51v0a3.31,3.31,0,0,1,.47.72v0a4.15,4.15,0,0,1,.3.94h0a5.8,5.8,0,0,1,.11,1.14A9.11,9.11,0,0,1,139.47,162.06Z"/><polygon class="cls-79" points="126.5 157.64 114.59 150.72 112.68 153.99 124.59 160.91 126.5 157.64"/><polygon class="cls-80" points="124.59 160.91 112.68 153.99 114.35 156.66 126.26 163.58 124.59 160.91"/><path class="cls-81" d="M176.39,19.6l16.81,9.24a4.15,4.15,0,0,1,2.16,3.65v20a4.17,4.17,0,0,1-6.24,3.62l-16.81-9.66a4.17,4.17,0,0,1-2.09-3.61V23.26A4.17,4.17,0,0,1,176.39,19.6Z"/><path class="cls-82" d="M176.39,52.81l16.81,9.24a4.15,4.15,0,0,1,2.16,3.65V84.29a4.16,4.16,0,0,1-6.19,3.64l-16.81-9.37a4.16,4.16,0,0,1-2.14-3.64V56.46A4.17,4.17,0,0,1,176.39,52.81Z"/><path class="cls-42" d="M190.17,43.72V41.51l-2.09-2.15-.44-1.64,1-1.8-1.18-2.21-1.9-.05-1.24-1.38-.68-2.9-1.68-1.06-.61,2.11-1.19-.2-2-2.32-1.15.67,1,3-.54,1.13-2-.41v2.08l2.05,2.07.51,1.67L177.05,40l1.19,2.19h1.88l1.15,1.38.69,2.88,1.71,1.16.6-2.27,1.18.26,2,2.41,1.18-.68-.93-3,.46-1.08Zm-7.38-1.91a7.7,7.7,0,0,1-3.15-5.88c0-2.15,1.41-3,3.15-1.89a7.7,7.7,0,0,1,3.15,5.88C185.94,42.07,184.53,42.92,182.79,41.81Z"/><path class="cls-42" d="M184.64,73.21a1.55,1.55,0,0,0-1.17.62L179,69.76a3.1,3.1,0,0,0,.08-.69s0,0,0,0l4-1.73a1.81,1.81,0,0,0,1.55,1.2c1,0,1.84-1.17,1.84-2.63s-.82-2.63-1.84-2.63-1.85,1.18-1.85,2.63c0,0,0,0,0,0l-4,1.73a1.81,1.81,0,0,0-1.55-1.2c-1,0-1.84,1.18-1.84,2.63s.82,2.63,1.84,2.63a1.53,1.53,0,0,0,1.17-.61l4.44,4.07a3.1,3.1,0,0,0-.08.69c0,1.45.83,2.63,1.85,2.63s1.84-1.18,1.84-2.63S185.66,73.21,184.64,73.21Z"/><path class="cls-43" d="M363.22,178.16a1.17,1.17,0,0,1-.38-.14l-22.65-13a1.78,1.78,0,0,1-.89-1.49V143.22a.86.86,0,0,1,.46-.79,1.05,1.05,0,0,1,1,.07l22.61,13a1.77,1.77,0,0,1,.9,1.49v20.32a.82.82,0,0,1-.45.76A.92.92,0,0,1,363.22,178.16Z"/><path class="cls-37" d="M344.53,158.57a2,2,0,0,0-.53-.46l-.13-.07-.69-.4h0l-21.78-12.54a1.07,1.07,0,0,0-1-.06.88.88,0,0,0-.46.79V166.1a1.79,1.79,0,0,0,.9,1.49l22.65,13a1.07,1.07,0,0,0,.38.13.92.92,0,0,0,.57-.07.84.84,0,0,0,.45-.77V159.59A1.7,1.7,0,0,0,344.53,158.57Z"/><g class="cls-83"><path class="cls-37" d="M344.9,159.59v20.32a.84.84,0,0,1-.45.77.92.92,0,0,1-.57.07,1.07,1.07,0,0,1-.38-.13l-22.65-13a1.79,1.79,0,0,1-.9-1.49v-6.76a7.93,7.93,0,0,1,2.11,2.45c1.2,2,.81,4.71,4.77,4.32,3.31-.31,3.08-3.26,5-4.91,5.33-4.66,6,4.45,11.81-1.73.3-.32.6-.62.92-.9A1.7,1.7,0,0,1,344.9,159.59Z"/></g><path class="cls-84" d="M347.44,144.89a1.73,1.73,0,0,1-.51-.18l-30.12-17.34a2.33,2.33,0,0,1-1.2-2v-27a1.15,1.15,0,0,1,.62-1,1.39,1.39,0,0,1,1.29.09l30.08,17.31a2.34,2.34,0,0,1,1.2,2v27a1.12,1.12,0,0,1-.6,1A1.16,1.16,0,0,1,347.44,144.89Z"/><path class="cls-42" d="M325.7,108.47a4.56,4.56,0,0,1,2.06,3.57l0,13.8c0,1.31-.93,1.84-2.08,1.18a4.55,4.55,0,0,1-2.06-3.57l0-13.8C323.62,108.34,324.55,107.81,325.7,108.47Z"/><path class="cls-42" d="M331.76,118.67a4.56,4.56,0,0,1,2.06,3.57l0,7.11c0,1.31-.93,1.84-2.08,1.18a4.55,4.55,0,0,1-2.06-3.57l0-7.1C329.69,118.54,330.61,118,331.76,118.67Z"/><path class="cls-42" d="M337.23,124.08a4.54,4.54,0,0,1,2,3.56v4.87c0,1.31-.94,1.84-2.07,1.19a4.54,4.54,0,0,1-2.06-3.58v-4.86C335.15,124,336.08,123.42,337.23,124.08Z"/><polygon class="cls-85" points="212.14 243.17 184.43 228.47 165.36 239.65 193.76 254.22 212.14 243.17"/><polygon class="cls-86" points="204.46 242.56 185.86 232.69 173.05 240.2 192.12 249.98 204.46 242.56"/><polygon class="cls-87" points="161.32 220.31 165.68 240.93 194.22 255.54 212 244.81 212.14 243.17 193.76 254.22 187.62 233.87 161.32 220.31"/><polygon class="cls-88" points="195.2 253.66 188.85 232.94 187.62 233.87 193.76 254.22 195.2 253.66"/><polygon class="cls-89" points="188.85 232.94 187.62 233.87 161.32 220.31 163.33 219.32 188.85 232.94"/></g></g></g></svg>