<svg xmlns="http://www.w3.org/2000/svg" viewBox="0 0 4.6 6.59"><defs><style>.cls-1{fill:#243d4c;}</style></defs><title>Asset 13</title><g id="Layer_2" data-name="Layer 2"><g id="OBJECTS"><path class="cls-1" d="M2.29,6.59c-.19-.25-.39-.49-.57-.74A12.47,12.47,0,0,1,.39,3.64,4.64,4.64,0,0,1,0,2.51,2,2,0,0,1,.4,1a2.24,2.24,0,0,1,2-1,2.26,2.26,0,0,1,2.2,1.89A2.42,2.42,0,0,1,4.45,3a7.85,7.85,0,0,1-.68,1.47,13.54,13.54,0,0,1-1.42,2ZM3.91,2.2A1.58,1.58,0,0,0,2.3.66,1.57,1.57,0,0,0,.7,2.19,1.58,1.58,0,0,0,2.3,3.75,1.58,1.58,0,0,0,3.91,2.2Z"/><path class="cls-1" d="M2.3,3.27A1.1,1.1,0,0,1,1.18,2.2,1.1,1.1,0,0,1,2.3,1.13,1.09,1.09,0,0,1,3.42,2.19,1.1,1.1,0,0,1,2.3,3.27Z"/></g></g></svg>