<svg xmlns="http://www.w3.org/2000/svg" viewBox="0 0 8.99 6.8"><defs><style>.cls-1{fill:#243d4c;}</style></defs><title>Asset 12</title><g id="Layer_2" data-name="Layer 2"><g id="OBJECTS"><path class="cls-1" d="M4.49,0h3.9A.58.58,0,0,1,9,.58V6.23a.54.54,0,0,1-.6.57H.6A.55.55,0,0,1,0,6.22V.58A.68.68,0,0,1,.08.27.5.5,0,0,1,.55,0ZM.93.56,4.5,4.39,8.06.56ZM1,6.24H8c-.75-.81-1.5-1.61-2.24-2.42l-1,1.05a.4.4,0,0,1-.65,0l-.55-.59-.43-.46C2.45,4.63,1.7,5.43,1,6.24ZM.58,1V5.81L2.81,3.4Zm5.6,2.4L8.41,5.8V1Z"/></g></g></svg>