<svg xmlns="http://www.w3.org/2000/svg" viewBox="0 0 7.02 7.02"><defs><style>.cls-1{fill:#243d4c;}</style></defs><title>Asset 10</title><g id="Layer_2" data-name="Layer 2"><g id="OBJECTS"><path class="cls-1" d="M7,5.62a1.72,1.72,0,0,1-.16.63,1,1,0,0,1-.42.42A2.34,2.34,0,0,1,5.39,7a2.51,2.51,0,0,1-.9-.16,6.13,6.13,0,0,1-1.8-.92A7,7,0,0,1,.48,3.33,5.74,5.74,0,0,1,0,2,1.81,1.81,0,0,1,.13,1,2.1,2.1,0,0,1,.55.32,1.33,1.33,0,0,1,1.28,0a.41.41,0,0,1,.49.24c.14.28.3.55.46.82s.17.29.25.43a.28.28,0,0,1,0,.4c-.13.13-.27.24-.41.36l-.33.32a.18.18,0,0,0,0,.21A1,1,0,0,0,1.73,3a5.56,5.56,0,0,0,1.2,1.57A6.11,6.11,0,0,0,4.1,5.3c.2.11.29.09.44-.08s.3-.34.46-.51.34-.29.66-.09.62.36.94.54l.3.18A.29.29,0,0,1,7,5.62Z"/></g></g></svg>