<svg xmlns="http://www.w3.org/2000/svg" viewBox="0 0 29.85 29.85"><defs><style>.cls-1{fill:none;stroke:#58ade6;stroke-miterlimit:10;}</style></defs><title>Asset 8</title><g id="Layer_2" data-name="Layer 2"><g id="OBJECTS"><path class="cls-1" d="M11.85,22.91c.22-1.3,1-3.82,1-3.82l2.11.84S12.81,21.94,11.85,22.91Z"/><path class="cls-1" d="M22.09,8c-.22-.16-.42,0-.61.09L8.15,13.49,3.89,15.23c.08.11.1.16.14.18l5.48,2.24c.49,1.7,1,3.4,1.46,5.1.19.68.88.16.88.16a29.82,29.82,0,0,1,1-3.82h0c.66.25,4.95,2,6,2.39.8.31,1.08.15,1.23-.71q1.06-6,2.11-12.08C22.25,8.46,22.34,8.2,22.09,8Z"/><path class="cls-1" d="M21.26,8.82c-.12.73-5.43,6.57-7.54,9.06-.32.38-.88,1.21-.88,1.21s-.77,2.52-1,3.82c-.52.54-.69.52-.88-.16-.5-1.7-1-3.4-1.46-5.1,3.78-2.89,11.61-8.79,11.73-8.85Z"/><circle class="cls-1" cx="14.92" cy="14.92" r="14.42" transform="translate(-6.16 15.81) rotate(-47.4)"/></g></g></svg>