<svg xmlns="http://www.w3.org/2000/svg" xmlns:xlink="http://www.w3.org/1999/xlink" viewBox="0 0 69.79 114.37"><defs><style>.cls-1{fill:none;}.cls-2{clip-path:url(#clip-path);}.cls-3{fill:#087b84;}.cls-4{fill:#fff;}</style><clipPath id="clip-path"><ellipse class="cls-1" cx="34.89" cy="34.27" rx="34.21" ry="34.94" transform="translate(-7.71 58.29) rotate(-73.9)"/></clipPath></defs><title>Asset 9</title><g id="Layer_2" data-name="Layer 2"><g id="OBJECTS"><g class="cls-2"><ellipse class="cls-3" cx="34.89" cy="34.27" rx="34.21" ry="34.94" transform="translate(-7.71 58.29) rotate(-73.9)"/><path class="cls-4" d="M57.4,71.23,46.51,44.59a3.4,3.4,0,0,0-.72-1.09s-2.42-3.68-10.9-3.68S24,43.5,24,43.5a3.4,3.4,0,0,0-.72,1.09L12.39,71.23a3.39,3.39,0,0,0,6.27,2.57l5.89-14.4.79,19.16-2.06,31.16a4.37,4.37,0,0,0,4.06,4.64h.3A4.36,4.36,0,0,0,32,110.3l1.7-30.52a1.22,1.22,0,1,1,2.43,0l1.7,30.52a4.36,4.36,0,0,0,4.34,4.07h.3a4.36,4.36,0,0,0,4.06-4.64L44.45,78.56l.79-19.16,5.89,14.4a3.39,3.39,0,0,0,6.27-2.57Z"/><path class="cls-4" d="M34.89,36.19a8.48,8.48,0,1,0-8.47-8.48A8.48,8.48,0,0,0,34.89,36.19Z"/></g></g></g></svg>